<?xml version="1.0" encoding="utf-8" ?>
<svg baseProfile="full" height="200mm" version="1.1" viewBox="0,0,200,200" width="200mm" xmlns="http://www.w3.org/2000/svg" xmlns:ev="http://www.w3.org/2001/xml-events" xmlns:xlink="http://www.w3.org/1999/xlink"><defs /><rect fill="#1a1a1a" height="200" width="200" x="0" y="0" /><text alignment-baseline="middle" fill="#e1ed5e" style="dominant-baseline: central; font-size:9.0px; font-family:Arial;" text-anchor="middle" x="100.0" y="100.0">2025</text><line stroke="#e1ed5e" stroke-width="0.3" x1="100.0" x2="100.0" y1="15.0" y2="10.0" /><path d="M 100.0 14.0 a86.0,86.0 0 0,1 42.46469731375804,11.215312516191453" fill="none" id="id1" stroke="none" /><text fill="#e1ed5e" style="font-size:6.75px; font-family:Arial;" text-anchor="middle"><textPath startOffset="22.20632615414155" xlink:href="#id1">January</textPath></text><line stroke="#e1ed5e" stroke-width="0.3" x1="143.23703022742887" x2="145.7803849466894" y1="26.81831364943548" y2="22.513508569990506" /><path d="M 143.74570117128098 25.957352633546492 a86.0,86.0 0 0,1 28.547481713284135,27.462654790039103" fill="none" id="id2" stroke="none" /><text fill="#e1ed5e" style="font-size:6.75px; font-family:Arial;" text-anchor="middle"><textPath startOffset="19.985693538727396" xlink:href="#id2">February</textPath></text><path d="M 117.45458315368197 88.32363383020206 l 12.452203803621527 -8.329989318671576 a35.98152534343913,35.98152534343913 0 0,0 0.33994550919487715,0.5177603328246108 l -12.593745948174329 8.114410921869291" fill="#ffaa0f" stroke="none" /><line stroke="#e1ed5e" stroke-width="0.3" x1="172.23445277983987" x2="176.4835382374775" y1="55.19839476539836" y2="52.563006222186495" /><path d="M 173.08426987136738 54.67131705675599 a86.0,86.0 0 0,1 12.851231095245387,41.99856678651699" fill="none" id="id3" stroke="none" /><text fill="#e1ed5e" style="font-size:6.75px; font-family:Arial;" text-anchor="middle"><textPath startOffset="22.20632615414155" xlink:href="#id3">March</textPath></text><path d="M 118.73160827565052 90.50648371742162 l 5.590200480179925 -2.833214238760959 a27.267171956418757,27.267171956418757 0 0,0 0.20858086427982392,0.420486294611264 l -5.638141357413158 2.7365683556507454" fill="#ff3004" stroke="none" /><path d="M 118.89224826269711 90.83032412892265 l 10.363440780768952 -5.030073263243753 a32.51965892941734,32.51965892941734 0 0,0 0.24009079314604406,0.5056924411516218 l -10.448489767756753 4.850938406451591" fill="#ff7b0b" stroke="none" /><path d="M 119.196687751892 91.48605970444005 l 14.322493230331553 -6.352181887971062 a36.667929891046896,36.667929891046896 0 0,0 0.2509296274371761,0.5791801767189872 l -14.42971356761141 6.1047025666654715" fill="#ffb310" stroke="none" /><path d="M 120.28053869075195 94.5502522615342 l 10.923246087818555 -2.9352738885057374 a32.31075319753671,32.31075319753671 0 0,0 0.13971118620807998,0.5383641922393813 l -10.972153605896938 2.7468132707175057" fill="#ff780b" stroke="none" /><path d="M 120.45610955862082 95.25157060432595 l 12.616700447808773 -2.928685491789492 a33.95215537659877,33.95215537659877 0 0,0 0.12724881911987007,0.5704315051283625 l -12.66524365393068 2.7110758171111655" fill="#ff8f0d" stroke="none" /><path d="M 120.6074358757038 95.95851677861258 l 15.609327316556309 -3.0612655949779723 a36.90667929891047,36.90667929891047 0 0,0 0.11689624078371484,0.6244643925219764 l -15.659709281249883 2.792123124993433" fill="#ffb710" stroke="none" /><path d="M 120.78858239683441 97.02765380044208 l 5.967731374932097 -0.8532647072155828 a27.028422548555188,27.028422548555188 0 0,0 0.06188736644237758,0.46113276390824587 l -5.981534740432311 0.7504136012426725" fill="#ff2c04" stroke="none" /><path d="M 120.87857604477298 97.74499172005257 l 29.73045930392591 -3.2110634246906553 a50.90336333491236,50.90336333491236 0 0,0 0.0865911643221392,0.8719612076671749 l -29.781327593930282 2.698826686319045" fill="#9aff22" stroke="none" /><line stroke="#e1ed5e" stroke-width="0.3" x1="184.98032266829074" x2="189.97916517819016" y1="98.17113171792111" y2="98.06355123074" /><path d="M 185.9800911702706 98.14961562048488 a86.0,86.0 0 0,1 -9.607161424134198,41.387399972396054" fill="none" id="id4" stroke="none" /><text fill="#e1ed5e" style="font-size:6.75px; font-family:Arial;" text-anchor="middle"><textPath startOffset="21.466115282336823" xlink:href="#id4">April</textPath></text><path d="M 120.99513854157772 99.54816195383933 l 9.249397841623527 -0.19905702649427784 a30.251539554713403,30.251539554713403 0 0,0 0.006723034275237806,0.5207064136608871 l -9.25145388301648 0.03981435477292797" fill="#ff5b08" stroke="none" /><path d="M 120.89721153311464 102.0752229133903 l 15.323961844273555 1.5217645996817548 a36.39933680720038,36.39933680720038 0 0,0 -0.06728278484493186,0.6229550252124814 l -15.295496757927571 -1.7853159467790276" fill="#ffb010" stroke="none" /><path d="M 120.76222939487914 103.15116336523771 l 15.490531168609502 2.351057461037131 a36.667929891046896,36.667929891046896 0 0,0 -0.10008292440752764,0.6232164658222864 l -15.447766489840685 -2.6173531565526225" fill="#ffb310" stroke="none" /><path d="M 120.49622156327973 104.57218783832717 l 4.6604388206415335 1.0396258467063197 a25.774988157271437,25.774988157271437 0 0,0 -0.1003253783391462,0.43219910412594426 l -4.641852876371834 -1.119693608180829" fill="#ff1a02" stroke="none" /><path d="M 120.32669344350535 105.2749913415812 l 17.36097976250125 4.505357360905217 a38.936049265750825,38.936049265750825 0 0,0 -0.17393646101292462,0.6472822773808167 l -17.280855225146546 -4.8035305714615815" fill="#ffd113" stroke="none" /><path d="M 120.23288151984713 105.62410040840565 l 15.411877538566644 4.284013953915822 a36.99621032685931,36.99621032685931 0 0,0 -0.17583305704433744,0.6120979387013074 l -15.335851844636208 -4.548669368121711" fill="#ffb811" stroke="none" /><path d="M 119.79798401119884 107.00284435728193 l 14.349083627254481 5.07548643611622 a36.220274751302696,36.220274751302696 0 0,0 -0.21296786626242037,0.585996101895157 l -14.259591499986835 -5.321730335017508" fill="#ffad10" stroke="none" /><path d="M 119.54520255179757 107.68017299344265 l 27.803999650899147 10.92541899540894 a50.87351965892942,50.87351965892942 0 0,0 -0.3272799766403103,0.8122820619857184 l -27.611817060001446 -11.402400425237472" fill="#9bff22" stroke="none" /><path d="M 119.26925614724726 108.34839909993367 l 4.326682810893039 1.874533952329967 a25.715300805305542,25.715300805305542 0 0,0 -0.17946698056355262,0.4046506632716259 l -4.293774745598213 -1.9487329520942804" fill="#ff1902" stroke="none" /><line stroke="#e1ed5e" stroke-width="0.3" x1="174.80103733775053" x2="179.2010983576182" y1="140.37084112569926" y2="142.7455964860345" /><path d="M 175.68104954172406 140.8457921977663 a86.0,86.0 0 0,1 -30.038265399797805,32.042727171017184" fill="none" id="id5" stroke="none" /><text fill="#e1ed5e" style="font-size:6.75px; font-family:Arial;" text-anchor="middle"><textPath startOffset="22.206326154141568" xlink:href="#id5">May</textPath></text><path d="M 118.12598468904814 110.60418214915192 l 8.73241422489908 5.108694100278309 a31.117006158218853,31.117006158218853 0 0,0 -0.27445069673896033,0.45999515410907926 l -8.643182652461892 -5.258251348273492" fill="#ff6709" stroke="none" /><path d="M 116.498646956653 112.99209946851258 l 2.7432615261891065 2.160221181169073 a24.491710090004737,24.491710090004737 0 0,0 -0.2636731883093082,0.32897284402195537 l -2.705670425824944 -2.2071218587692787" fill="#ff0601" stroke="none" /><path d="M 116.0416608686014 113.55231037782055 l 17.5994725588256 14.868380310294837 a44.03931785883468,44.03931785883468 0 0,0 -0.4941997679441793,0.5748659791624423 l -17.34093028131064 -15.169123388618809" fill="#ecff1a" stroke="none" /><path d="M 115.80600337817218 113.82643327865902 l 11.253634806912737 9.844210903753916 a35.951681667456185,35.951681667456185 0 0,0 -0.4114604061444365,0.46228012816509173 l -11.082515551119961 -10.036465201659874" fill="#ffaa0f" stroke="none" /><path d="M 115.32070863581623 114.36230785411682 l 18.201959857236908 17.06331980015395 a45.949313121743245,45.949313121743245 0 0,0 -0.5459072663100725,0.5723815862176217 l -17.905546039547872 -17.374108502954076" fill="#d4ff1c" stroke="none" /><path d="M 114.81725581225074 114.88116024355365 l 2.1688924898083743 2.1782465728366076 a24.073898626243487,24.073898626243487 0 0,0 -0.2961663265043003,0.2898610852332429 l -2.13107621092828 -2.2152577609924227" fill="#ff0000" stroke="none" /><path d="M 113.75828350139079 115.86535959552629 l 21.52705372102974 24.823914137386698 a53.857887257224064,53.857887257224064 0 0,0 -0.7056268639563553,0.601350521711495 l -21.096561380496336 -25.19078904932114" fill="#79ff26" stroke="none" /><path d="M 112.92097659922987 116.55440617244103 l 7.675464071735797 9.833834836684535 a33.47465656087162,33.47465656087162 0 0,0 -0.4572817757552788,0.35062416615390574 l -7.505053567487024 -9.964498344665813" fill="#ff880c" stroke="none" /><path d="M 112.34349029814194 116.9893568818739 l 8.805919653719451 12.120308604501226 a35.98152534343913,35.98152534343913 0 0,0 -0.5042085528993768,0.3597394149263188 l -8.59598377297119 -12.270092281271765" fill="#ffaa0f" stroke="none" /><line stroke="#e1ed5e" stroke-width="0.3" x1="143.8653032363475" x2="146.44561519142675" y1="172.8068346515853" y2="177.08958963109032" /><path d="M 144.38136562736335 173.6633856474863 a86.0,86.0 0 0,1 -40.68145358897372,12.25698825130547" fill="none" id="id6" stroke="none" /><text fill="#e1ed5e" style="font-size:6.75px; font-family:Arial;" text-anchor="middle"><textPath startOffset="21.466115282336833" xlink:href="#id6">June</textPath></text><path d="M 110.21172684928248 118.3499491758327 l 17.893499581002338 32.15370061648752 a57.797252486973,57.797252486973 0 0,0 -0.8735014036206306,0.4763026116891205 l -17.337375365513058 -32.45694387993641" fill="#4fff2b" stroke="none" /><path d="M 109.57404056367764 118.69057910512821 l 10.272478387839813 20.054079428287732 a43.53197536712459,43.53197536712459 0 0,0 -0.6698660824160304,0.3358847599151559 l -9.925758397741022 -20.22793202911219" fill="#f2ff19" stroke="none" /><path d="M 109.2508944713604 118.85261126421891 l 6.586496632143381 13.422773439185706 a35.951681667456185,35.951681667456185 0 0,0 -0.5579141723577258,0.2678327071201279 l -6.354469791785423 -13.534160422805394" fill="#ffaa0f" stroke="none" /><path d="M 108.59647513512805 119.15986991738527 l 6.193860104466963 13.804908642512078 a36.13074372335386,36.13074372335386 0 0,0 -0.5696258217162663,0.24970722048059737 l -5.955313608092943 -13.909480416287131" fill="#ffac0f" stroke="none" /><path d="M 107.93186726928326 119.44442032107085 l 5.793907782678726 14.20336150406975 a36.339649455234486,36.339649455234486 0 0,0 -0.58122487409714,0.23128137251758896 l -5.54856183253972 -14.300989720993408" fill="#ffaf10" stroke="none" /><path d="M 107.2578585660854 119.70592522655815 l 15.750000043219913 42.76307127563376 a66.57129322595927,66.57129322595927 0 0,0 -1.0787099480179132,0.38678700869757787 l -15.011570534572266 -43.0278458253713" fill="#37ff74" stroke="none" /><path d="M 106.2309692047433 120.05430185196036 l 2.9664254148588447 9.547405666139344 a30.997631454287067,30.997631454287067 0 0,0 -0.5109074275908072,0.15393221689557512 l -2.801643012827792 -9.597053252140645" fill="#ff6509" stroke="none" /><path d="M 103.41894727170886 120.7198165907248 l 2.434238630686129 14.752195327266403 a35.951681667456185,35.951681667456185 0 0,0 -0.6114595873608807,0.09549741224422538 l -2.179943179716731 -14.791911046857734" fill="#ffaa0f" stroke="none" /><path d="M 100.90346689309514 120.98055641714683 l 0.2580722579518573 5.993024878986041 a26.99857887257224,26.99857887257224 0 0,0 -0.4644779562079553,0.01599755995811533 l -0.1548739500692497 -5.996579237370251" fill="#ff2c04" stroke="none" /><line stroke="#e1ed5e" stroke-width="0.3" x1="102.19456741930631" x2="102.32365962044197" y1="184.97166512339345" y2="189.96999836594603" /><path d="M 102.22038585953345 185.97133177190398 a86.0,86.0 0 0,1 -42.740103519485714,-10.115201625700543" fill="none" id="id7" stroke="none" /><text fill="#e1ed5e" style="font-size:6.75px; font-family:Arial;" text-anchor="middle"><textPath startOffset="22.20632615414155" xlink:href="#id7">July</textPath></text><path d="M 100.54218724476979 120.99299961872073 l 0.3991278912232407 15.453870870436775 a36.459024159166276,36.459024159166276 0 0,0 -0.6275124284904653,0.010803195533813287 l -0.13305577284010756 -15.458451543249748" fill="#ffb110" stroke="none" /><path d="M 99.81925306533755 120.99922214144158 l -0.13125772185577125 15.249553549422048 a36.25011842728565,36.25011842728565 0 0,0 -0.6239168593231256,-0.010741294549854192 l 0.3937342710715648 -15.245034777593034" fill="#ffae10" stroke="none" /><path d="M 98.01472825383883 120.90594882070398 l -2.88057193675589 30.333927635156936 a51.470393178588346,51.470393178588346 0 0,0 -0.8812893155673425,-0.09134924093315677 l 3.4022938489288257 -30.279849025768016" fill="#94ff23" stroke="none" /><path d="M 94.81253420990036 120.34920634021253 l -3.693397007351853 14.488326446868518 a35.951681667456185,35.951681667456185 0 0,0 -0.5983550637988052,-0.15803101071381145 l 3.9422425139621478 -14.422604086851125" fill="#ffaa0f" stroke="none" /><path d="M 93.76903079525671 120.05430185196036 l -6.331325885444985 20.377298660566076 a42.33822832780673,42.33822832780673 0 0,0 -0.6941022999966641,-0.22222963743073845 l 6.68114953053259 -20.26529617647563" fill="#fffd17" stroke="none" /><path d="M 90.10565033884886 118.52300852407294 l -7.185238290168021 13.451336839130178 a36.25011842728565,36.25011842728565 0 0,0 -0.5478552693276523,-0.2987343746979694 l 7.415716371364313 -13.325661812672443" fill="#ffae10" stroke="none" /><line stroke="#e1ed5e" stroke-width="0.3" x1="58.666819895761336" x2="56.23545636021788" y1="174.27360380694188" y2="178.64263932499728" /><path d="M 58.180547188652646 175.14741091055294 a86.0,86.0 0 0,1 -31.652253787137756,-30.449443065178592" fill="none" id="id8" stroke="none" /><text fill="#e1ed5e" style="font-size:6.75px; font-family:Arial;" text-anchor="middle"><textPath startOffset="22.20632615414155" xlink:href="#id8">August</textPath></text><path d="M 86.51685102203217 116.09983520530335 l -19.199595370805927 22.925677227447583 a50.90336333491236,50.90336333491236 0 0,0 -0.6669177434179069,-0.5683617694122014 l 19.59137859080089 -22.59179106781243" fill="#9aff22" stroke="none" /><path d="M 85.97065885151581 115.62618273729859 l -10.247865490744966 11.41429359588556 a36.339649455234486,36.339649455234486 0 0,0 -0.46186041961041213,-0.4218985427092553 l 10.442825459822233 -11.236202286589728" fill="#ffaf10" stroke="none" /><path d="M 84.67929136418377 114.36230785411682 l -24.66844559599213 23.12528867652444 a54.812884888678354,54.812884888678354 0 0,0 -0.6393625257903995,-0.6939017461130241 l 25.06285452977826 -22.69723567561007" fill="#6fff27" stroke="none" /><path d="M 83.06392112726016 112.41649034213515 l -26.812115392087414 19.656992289633184 a54.245855045002365,54.245855045002365 0 0,0 -0.5456105126365762,-0.7578052816082157 l 27.1465056970996 -19.19255340257383" fill="#75ff27" stroke="none" /><line stroke="#e1ed5e" stroke-width="0.3" x1="26.63291911575756" x2="22.317208475507996" y1="142.92168965132927" y2="145.44649492493687" /><path d="M 25.769776987707644 143.4266507060508 a86.0,86.0 0 0,1 -11.730757126820373,-40.83630448921669" fill="none" id="id9" stroke="none" /><text fill="#e1ed5e" style="font-size:6.75px; font-family:Arial;" text-anchor="middle"><textPath startOffset="21.46611528233685" xlink:href="#id9">September</textPath></text><path d="M 81.69416730710424 110.29060199501025 l -26.066950769703762 14.653505256750735 a50.90336333491236,50.90336333491236 0 0,0 -0.42279749542235423,-0.7675002640257423 l 26.31532467457763 -14.202634474327171" fill="#9aff22" stroke="none" /><path d="M 80.32549172779594 107.34259656027581 l -14.035911633320376 5.238252212115288 a35.98152534343913,35.98152534343913 0 0,0 -0.2115640681876378,-0.5821334525006511 l 14.123999962513238 -4.99587096260852" fill="#ffaa0f" stroke="none" /><path d="M 79.67330655649465 105.27499134158121 l -18.285358052684344 4.745243276960076 a39.891046897205115,39.891046897205115 0 0,0 -0.1667610751666581,-0.6661276001972802 l 18.36433044214606 -4.429787837365403" fill="#ffde14" stroke="none" /><path d="M 79.23777060512086 103.15116336523772 l -6.314235562061779 0.9583358031656176 a27.386546660350547,27.386546660350547 0 0,0 -0.06672660234547746,-0.4666857013917372 l 6.329796215423856 -0.8495046297934798" fill="#ff3104" stroke="none" /><path d="M 79.07016306316243 101.71520430193888 l -62.78951081051271 5.145612905816642 a84.0,84.0 0 0,0 -0.10569376534265862,-1.4421074540129575 l 62.86878113451971 -4.064032315306924" fill="#4dd2ff" stroke="none" /><line stroke="#e1ed5e" stroke-width="0.3" x1="15.007084014347285" x2="10.007500721073583" y1="101.09737516637583" y2="101.16192664675087" /><path d="M 14.007167355692545 101.11028546245083 a86.0,86.0 0 0,1 10.666146001902534,-42.60595125391555" fill="none" id="id10" stroke="none" /><text fill="#e1ed5e" style="font-size:6.75px; font-family:Arial;" text-anchor="middle"><textPath startOffset="22.20632615414155" xlink:href="#id10">October</textPath></text><line stroke="#e1ed5e" stroke-width="0.3" x1="26.266209847984243" x2="21.928928074336255" y1="57.711370442889674" y2="55.22380399835377" /><path d="M 25.398753493254645 57.213857153982495 a86.0,86.0 0 0,1 29.58750427330803,-30.492523968695096" fill="none" id="id11" stroke="none" /><text fill="#e1ed5e" style="font-size:6.75px; font-family:Arial;" text-anchor="middle"><textPath startOffset="21.46611528233685" xlink:href="#id11">November</textPath></text><line stroke="#e1ed5e" stroke-width="0.3" x1="56.762969772571076" x2="54.21961505331055" y1="26.818313649435495" y2="22.513508569990535" /><path d="M 56.25429882871897 25.957352633546506 a86.0,86.0 0 0,1 42.265352541879196,-11.944610805530505" fill="none" id="id12" stroke="none" /><text fill="#e1ed5e" style="font-size:6.75px; font-family:Arial;" text-anchor="middle"><textPath startOffset="22.20632615414155" xlink:href="#id12">December</textPath></text></svg>