<?xml version="1.0" encoding="utf-8" ?>
<svg baseProfile="full" height="200mm" version="1.1" viewBox="0,0,200,200" width="200mm" xmlns="http://www.w3.org/2000/svg" xmlns:ev="http://www.w3.org/2001/xml-events" xmlns:xlink="http://www.w3.org/1999/xlink"><defs /><rect fill="#1a1a1a" height="200" width="200" x="0" y="0" /><text alignment-baseline="middle" fill="#e1ed5e" style="dominant-baseline: central; font-size:9.0px; font-family:Arial;" text-anchor="middle" x="100.0" y="100.0">2026</text><line stroke="#e1ed5e" stroke-width="0.3" x1="100.0" x2="100.0" y1="15.0" y2="10.0" /><path d="M 100.0 14.0 a86.0,86.0 0 0,1 42.46469731375804,11.215312516191453" fill="none" id="id13" stroke="none" /><text fill="#e1ed5e" style="font-size:6.75px; font-family:Arial;" text-anchor="middle"><textPath startOffset="22.20632615414155" xlink:href="#id13">January</textPath></text><path d="M 102.88285421437855 79.19881850522331 l 2.0530232816415537 -14.81355168132694 a35.955140186915884,35.955140186915884 0 0,0 0.6123177830417781,0.09023972431505128 l -2.3077100451119876 14.776017472850919" fill="#ff1202" stroke="none" /><path d="M 105.01212808612495 79.60689891045804 l 4.595231450923904 -18.696852494243608 a40.25327102803738,40.25327102803738 0 0,0 0.6714458591654333,0.17116649986696453 l -4.9163861987743624 18.614982998207775" fill="#ff5f08" stroke="none" /><path d="M 109.73455568895987 81.39251694778311 l 13.687513115925345 -26.1635123851031 a50.52757009345794,50.52757009345794 0 0,0 0.7671888576755728,0.4098057183376019 l -14.135847020129228 25.924027940263745" fill="#f8ff18" stroke="none" /><line stroke="#e1ed5e" stroke-width="0.3" x1="143.23703022742887" x2="145.7803849466894" y1="26.81831364943548" y2="22.513508569990506" /><path d="M 143.74570117128098 25.957352633546492 a86.0,86.0 0 0,1 28.547481713284135,27.462654790039103" fill="none" id="id14" stroke="none" /><text fill="#e1ed5e" style="font-size:6.75px; font-family:Arial;" text-anchor="middle"><textPath startOffset="19.985693538727396" xlink:href="#id14">February</textPath></text><path d="M 110.99172775467656 82.1063720568725 l 7.7352999993191105 -12.592431627266361 a35.7785046728972,35.7785046728972 0 0,0 0.5219927899302469,0.32687183716661 l -7.95091194162162 12.457415448776807" fill="#ff0f01" stroke="none" /><path d="M 111.60114157652 82.49532879139004 l 16.295809149074373 -24.588337221066148 a50.498130841121494,50.498130841121494 0 0,0 0.7204287114878204,0.4864366819210484 l -16.716642554968733 24.304188626846432" fill="#f8ff18" stroke="none" /><path d="M 113.6212207817346 84.01681056812373 l 9.585774998734731 -11.247982843180218 a35.7785046728972,35.7785046728972 0 0,0 0.4653015000625691,0.40350487569713955 l -9.777970297444064 11.081312974063406" fill="#ff0f01" stroke="none" /><path d="M 114.42810811169701 84.74124197986012 l 20.388130341014836 -21.56190852939392 a50.674766355140186,50.674766355140186 0 0,0 0.6286488457876038,0.6047596915698471 l -20.756262430414857 21.20776575106177" fill="#f5ff19" stroke="none" /><path d="M 115.9244219780498 86.31012108654704 l 35.00396307698426 -30.09214505087979 a67.1607476635514,67.1607476635514 0 0,0 0.7460899819131634,0.8831352096908386 l -35.51676367238454 29.485150891559844" fill="#33ff4e" stroke="none" /><path d="M 117.2510076193507 88.02491185347247 l 13.494479791959382 -9.367428765087425 a37.42710280373832,37.42710280373832 0 0,0 0.3628210691305846,0.5323951491806869 l -13.6537253267587 9.133755592636332" fill="#ff2d04" stroke="none" /><path d="M 117.65298651832404 88.62581576622439 l 24.796671716860775 -15.977008320901628 a50.498130841121494,50.498130841121494 0 0,0 0.46451644379360374,0.7347534602162126 l -25.068015756900337 15.54780721297121" fill="#f8ff18" stroke="none" /><line stroke="#e1ed5e" stroke-width="0.3" x1="172.23445277983987" x2="176.4835382374775" y1="55.19839476539836" y2="52.563006222186495" /><path d="M 173.08426987136738 54.67131705675599 a86.0,86.0 0 0,1 12.851231095245387,41.99856678651699" fill="none" id="id15" stroke="none" /><text fill="#e1ed5e" style="font-size:6.75px; font-family:Arial;" text-anchor="middle"><textPath startOffset="22.20632615414155" xlink:href="#id15">March</textPath></text><path d="M 118.3937258080291 89.86733742301442 l 15.600286140921877 -8.593823634219085 a38.8107476635514,38.8107476635514 0 0,0 0.31730909700512694,0.587925565850526 l -15.745903337145469 8.3240170850361" fill="#ff4506" stroke="none" /><path d="M 119.04729006885535 91.15688171328212 l 57.14187020656606 -26.529354860153646 a84.0,84.0 0 0,0 0.5975907321466121,1.3167119646317489 l -57.59006325567602 25.541820886679833" fill="#4dd2ff" stroke="none" /><path d="M 119.47837535516314 92.15188598940014 l 21.954131475071716 -8.845631305405066 a44.669158878504675,44.669158878504675 0 0,0 0.28121671071892507,0.7156658550067241 l -22.10314173567234 8.466416445502556" fill="#ffa90f" stroke="none" /><path d="M 119.85752413597 93.16781622104841 l 19.709056665794517 -6.781102031071571 a41.84299065420561,41.84299065420561 0 0,0 0.2284681211949404,0.6830906024015201 l -19.82286208076123 6.440838325747737" fill="#ff7a0b" stroke="none" /><path d="M 120.37134235888165 94.90015583598534 l 14.307536245513607 -3.581806438557951 a35.74906542056075,35.74906542056075 0 0,0 0.14430229376160505,0.5982261687218614 l -14.36707133953603 3.3349950381766837" fill="#ff0e01" stroke="none" /><path d="M 120.53481517161879 95.60439243477599 l 28.81591119643516 -6.168228746900807 a50.46869158878505,50.46869158878505 0 0,0 0.17452723416316399,0.8510567758652211 l -28.91781772651332 5.671296314872174" fill="#f9ff18" stroke="none" /><path d="M 120.78858239683441 97.02765380044208 l 29.696587096786352 -4.246010435536699 a50.99859813084112,50.99859813084112 0 0,0 0.11677222097963798,0.8700886805093174 l -29.765275316823825 3.7342034129627177" fill="#f1ff19" stroke="none" /><path d="M 120.83666639777658 97.38593545837742 l 14.663560558435295 -1.8396173830297202 a35.7785046728972,35.7785046728972 0 0,0 0.07140307147145553,0.611737911246536 l -14.69305398291034 1.5869357334583316" fill="#ff0f01" stroke="none" /><path d="M 120.94382443527127 98.46500227214037 l 29.389862046317578 -2.154017839608635 a50.46869158878505,50.46869158878505 0 0,0 0.05604286003004254,0.8669582395077756 l -29.422585497352035 1.6478005358478243" fill="#f9ff18" stroke="none" /><line stroke="#e1ed5e" stroke-width="0.3" x1="184.98032266829074" x2="189.97916517819016" y1="98.17113171792111" y2="98.06355123074" /><path d="M 185.9800911702706 98.14961562048488 a86.0,86.0 0 0,1 -9.607161424134198,41.387399972396054" fill="none" id="id16" stroke="none" /><text fill="#e1ed5e" style="font-size:6.75px; font-family:Arial;" text-anchor="middle"><textPath startOffset="21.466115282336823" xlink:href="#id16">April</textPath></text><path d="M 120.99980553446 99.90962569577887 l 14.748928840324004 -0.06347316787119554 a35.74906542056075,35.74906542056075 0 0,0 -0.0026483294272619264,0.6153784910766246 l -14.747836213607238 -0.19041480140911374" fill="#ff0e01" stroke="none" /><path d="M 120.95626037817324 101.35467743843564 l 44.09628059949256 2.85051986227836 a65.18831775700934,65.18831775700934 0 0,0 -0.0820237947629929,1.1191495113326893 l -44.04068024606523 -3.60914251010782" fill="#2fff30" stroke="none" /><path d="M 120.81339534386255 102.79330883721812 l 13.859387086450528 1.8600304173064541 a34.98364485981308,34.98364485981308 0 0,0 -0.085236732769073,0.5961455104625424 l -13.825316302664854 -2.098321399749406" fill="#ff0000" stroke="none" /><path d="M 120.70491114924044 103.5080841355445 l 61.563247496549955 10.430812782462453 a83.44065420560747,83.44065420560747 0 0,0 -0.25212411251863476,1.4140459170632917 l -61.37457694169213 -11.488977450258963" fill="#4cd8ff" stroke="none" /><path d="M 120.5718875245553 104.21870165774334 l 17.332295891015512 3.5543547144445027 a38.69299065420561,38.69299065420561 0 0,0 -0.1394163015465051,0.6513065467486194 l -17.268545550744562 -3.852175080609291" fill="#ff4306" stroke="none" /><path d="M 120.41448212921028 104.9243191809786 l 28.67566975719912 6.917057690664335 a50.498130841121494,50.498130841121494 0 0,0 -0.21110307319514804,0.8432518404023367 l -28.552355369708913 -7.409637370464068" fill="#f8ff18" stroke="none" /><path d="M 120.23288151984713 105.62410040840565 l 28.39221645051445 7.892137161888875 a50.46869158878505,50.46869158878505 0 0,0 -0.23986414415644428,0.834998553028007 l -28.252159669471904 -8.379693190421463" fill="#f9ff18" stroke="none" /><path d="M 119.67450827220406 107.3425965602758 l 17.62431418589495 6.5774568252564 a39.811682242990656,39.811682242990656 0 0,0 -0.24513705966782387,0.6399755090457643 l -17.50848284663362 -6.879855901135308" fill="#ff5708" stroke="none" /><line stroke="#e1ed5e" stroke-width="0.3" x1="174.80103733775053" x2="179.2010983576182" y1="140.37084112569926" y2="142.7455964860345" /><path d="M 175.68104954172406 140.8457921977663 a86.0,86.0 0 0,1 -30.038265399797805,32.042727171017184" fill="none" id="id17" stroke="none" /><text fill="#e1ed5e" style="font-size:6.75px; font-family:Arial;" text-anchor="middle"><textPath startOffset="22.206326154141568" xlink:href="#id17">May</textPath></text><line stroke="#e1ed5e" stroke-width="0.3" x1="143.8653032363475" x2="146.44561519142675" y1="172.8068346515853" y2="177.08958963109032" /><path d="M 144.38136562736335 173.6633856474863 a86.0,86.0 0 0,1 -40.68145358897372,12.25698825130547" fill="none" id="id18" stroke="none" /><text fill="#e1ed5e" style="font-size:6.75px; font-family:Arial;" text-anchor="middle"><textPath startOffset="21.466115282336833" xlink:href="#id18">June</textPath></text><line stroke="#e1ed5e" stroke-width="0.3" x1="102.19456741930631" x2="102.32365962044197" y1="184.97166512339345" y2="189.96999836594603" /><path d="M 102.22038585953345 185.97133177190398 a86.0,86.0 0 0,1 -42.740103519485714,-10.115201625700543" fill="none" id="id19" stroke="none" /><text fill="#e1ed5e" style="font-size:6.75px; font-family:Arial;" text-anchor="middle"><textPath startOffset="22.20632615414155" xlink:href="#id19">July</textPath></text><line stroke="#e1ed5e" stroke-width="0.3" x1="58.666819895761336" x2="56.23545636021788" y1="174.27360380694188" y2="178.64263932499728" /><path d="M 58.180547188652646 175.14741091055294 a86.0,86.0 0 0,1 -31.652253787137756,-30.449443065178592" fill="none" id="id20" stroke="none" /><text fill="#e1ed5e" style="font-size:6.75px; font-family:Arial;" text-anchor="middle"><textPath startOffset="22.20632615414155" xlink:href="#id20">August</textPath></text><line stroke="#e1ed5e" stroke-width="0.3" x1="26.63291911575756" x2="22.317208475507996" y1="142.92168965132927" y2="145.44649492493687" /><path d="M 25.769776987707644 143.4266507060508 a86.0,86.0 0 0,1 -11.730757126820373,-40.83630448921669" fill="none" id="id21" stroke="none" /><text fill="#e1ed5e" style="font-size:6.75px; font-family:Arial;" text-anchor="middle"><textPath startOffset="21.46611528233685" xlink:href="#id21">September</textPath></text><line stroke="#e1ed5e" stroke-width="0.3" x1="15.007084014347285" x2="10.007500721073583" y1="101.09737516637583" y2="101.16192664675087" /><path d="M 14.007167355692545 101.11028546245083 a86.0,86.0 0 0,1 10.666146001902534,-42.60595125391555" fill="none" id="id22" stroke="none" /><text fill="#e1ed5e" style="font-size:6.75px; font-family:Arial;" text-anchor="middle"><textPath startOffset="22.20632615414155" xlink:href="#id22">October</textPath></text><line stroke="#e1ed5e" stroke-width="0.3" x1="26.266209847984243" x2="21.928928074336255" y1="57.711370442889674" y2="55.22380399835377" /><path d="M 25.398753493254645 57.213857153982495 a86.0,86.0 0 0,1 29.58750427330803,-30.492523968695096" fill="none" id="id23" stroke="none" /><text fill="#e1ed5e" style="font-size:6.75px; font-family:Arial;" text-anchor="middle"><textPath startOffset="21.46611528233685" xlink:href="#id23">November</textPath></text><line stroke="#e1ed5e" stroke-width="0.3" x1="56.762969772571076" x2="54.21961505331055" y1="26.818313649435495" y2="22.513508569990535" /><path d="M 56.25429882871897 25.957352633546506 a86.0,86.0 0 0,1 42.265352541879196,-11.944610805530505" fill="none" id="id24" stroke="none" /><text fill="#e1ed5e" style="font-size:6.75px; font-family:Arial;" text-anchor="middle"><textPath startOffset="22.20632615414155" xlink:href="#id24">December</textPath></text></svg>