<?xml version="1.0" encoding="utf-8" ?>
<svg baseProfile="full" height="200mm" version="1.1" viewBox="0,0,200,200" width="200mm" xmlns="http://www.w3.org/2000/svg" xmlns:ev="http://www.w3.org/2001/xml-events" xmlns:xlink="http://www.w3.org/1999/xlink"><defs /><rect fill="#1a1a1a" height="200" width="200" x="0" y="0" /><text alignment-baseline="middle" fill="#e1ed5e" style="dominant-baseline: central; font-size:9.0px; font-family:Arial;" text-anchor="middle" x="100.0" y="100.0">2025</text><line stroke="#e1ed5e" stroke-width="0.3" x1="100.0" x2="100.0" y1="15.0" y2="10.0" /><path d="M 100.0 14.0 a86.0,86.0 0 0,1 42.46469731375804,11.215312516191453" fill="none" id="id1" stroke="none" /><text fill="#e1ed5e" style="font-size:6.75px; font-family:Arial;" text-anchor="middle"><textPath startOffset="22.20632615414155" xlink:href="#id1">January</textPath></text><line stroke="#e1ed5e" stroke-width="0.3" x1="143.23703022742887" x2="145.7803849466894" y1="26.81831364943548" y2="22.513508569990506" /><path d="M 143.74570117128098 25.957352633546492 a86.0,86.0 0 0,1 28.547481713284135,27.462654790039103" fill="none" id="id2" stroke="none" /><text fill="#e1ed5e" style="font-size:6.75px; font-family:Arial;" text-anchor="middle"><textPath startOffset="19.985693538727396" xlink:href="#id2">February</textPath></text><path d="M 117.45458315368197 88.32363383020206 l 17.214539770428974 -11.515787460193646 a41.71119842829077,41.71119842829077 0 0,0 0.3940781957821963,0.6002081283272527 l -17.4102146015691 11.217761267888719" fill="red" stroke="none" /><line stroke="#e1ed5e" stroke-width="0.3" x1="172.23445277983987" x2="176.4835382374775" y1="55.19839476539836" y2="52.563006222186495" /><path d="M 173.08426987136738 54.67131705675599 a86.0,86.0 0 0,1 12.851231095245387,41.99856678651699" fill="none" id="id3" stroke="none" /><text fill="#e1ed5e" style="font-size:6.75px; font-family:Arial;" text-anchor="middle"><textPath startOffset="22.20632615414155" xlink:href="#id3">March</textPath></text><path d="M 118.73160827565052 90.50648371742162 l 7.728168443785087 -3.9167748906512028 a29.664047151277014,29.664047151277014 0 0,0 0.22691581667288716,0.4574484398217192 l -7.794444273411382 3.7831668623305337" fill="red" stroke="none" /><path d="M 118.89224826269711 90.83032412892265 l 14.326930902556162 -6.953820994569459 a36.925343811394896,36.925343811394896 0 0,0 0.27261771416822833,0.5742024322234114 l -14.444506810566146 6.706176146705507" fill="red" stroke="none" /><path d="M 119.196687751892 91.48605970444005 l 19.800119979849324 -8.78156906712961 a42.66011787819254,42.66011787819254 0 0,0 0.29193596468107685,0.6738284567729916 l -19.94834665437308 8.439441465770015" fill="red" stroke="none" /><path d="M 120.28053869075195 94.5502522615342 l 15.100833327691534 -4.057867176578659 a36.63654223968566,36.63654223968566 0 0,0 0.15841582966438353,0.6104408135807875 l -15.16844548922622 3.797329937449021" fill="red" stroke="none" /><path d="M 120.45610955862082 95.25157060432595 l 17.441948032301454 -4.048759052500077 a38.90569744597249,38.90569744597249 0 0,0 0.14581413174278693,0.6536561613249195 l -17.509056551046278 3.7479247216251936" fill="red" stroke="none" /><path d="M 120.6074358757038 95.95851677861258 l 21.579102793222244 -4.2320443163055 a42.9901768172888,42.9901768172888 0 0,0 0.13616478523757686,0.7273977274734962 l -21.64875330236968 3.8599685113694413" fill="red" stroke="none" /><path d="M 120.78858239683441 97.02765380044208 l 8.250085744912678 -1.1795951518874235 a29.33398821218075,29.33398821218075 0 0,0 0.06716645318247244,0.5004680919293196 l -8.269168197152986 1.0374087178934395" fill="red" stroke="none" /><path d="M 120.87857604477298 97.74499172005257 l 41.100851074386114 -4.439132213177454 a62.33988212180746,62.33988212180746 0 0,0 0.10604570352485751,1.0678657624864416 l -41.1711739035932 3.730990919986578" fill="red" stroke="none" /><line stroke="#e1ed5e" stroke-width="0.3" x1="184.98032266829074" x2="189.97916517819016" y1="98.17113171792111" y2="98.06355123074" /><path d="M 185.9800911702706 98.14961562048488 a86.0,86.0 0 0,1 -9.607161424134198,41.387399972396054" fill="none" id="id4" stroke="none" /><text fill="#e1ed5e" style="font-size:6.75px; font-family:Arial;" text-anchor="middle"><textPath startOffset="21.466115282336823" xlink:href="#id4">April</textPath></text><path d="M 120.99513854157772 99.54816195383933 l 12.786823080332201 -0.275186236365043 a33.789783889980356,33.789783889980356 0 0,0 0.0075093657575460975,0.5816086535333616 l -12.789665453207464 0.05504132477121871" fill="red" stroke="none" /><path d="M 120.89721153311464 102.0752229133903 l 21.18459951097673 2.103762324772877 a42.28880157170923,42.28880157170923 0 0,0 -0.07816923568059296,0.7237500394265005 l -21.145247973795087 -2.4681086860841694" fill="red" stroke="none" /><path d="M 120.76222939487914 103.15116336523771 l 21.414873147959835 3.2502176164043126 a42.66011787819254,42.66011787819254 0 0,0 -0.11643824359612528,0.7250610540220552 l -21.35575315000242 -3.6183579001195727" fill="red" stroke="none" /><path d="M 120.49622156327973 104.57218783832717 l 6.442820137769663 1.4372299688258288 a27.601178781925345,27.601178781925345 0 0,0 -0.10743355872781957,0.46282095920198446 l -6.4171260131112895 -1.547919585376378" fill="red" stroke="none" /><path d="M 120.32669344350535 105.2749913415812 l 24.00067339793068 6.228427890550699 a45.79567779960708,45.79567779960708 0 0,0 -0.20458002998158603,0.7613183972006708 l -23.889905291607317 -6.6406372209269175" fill="red" stroke="none" /><path d="M 120.23288151984713 105.62410040840565 l 21.306138496341966 5.922431864254289 a43.1139489194499,43.1139489194499 0 0,0 -0.20490902643227135,0.7133152025495321 l -21.201036833023593 -6.288304542308403" fill="red" stroke="none" /><path d="M 119.79798401119884 107.00284435728193 l 19.83687985404991 7.016602401205856 a42.04125736738703,42.04125736738703 0 0,0 -0.2471940629384557,0.680171895581046 l -19.71316153010623 -7.3570220937930335" fill="red" stroke="none" /><path d="M 119.54520255179757 107.68017299344265 l 38.43761837789659 15.10383726215342 a62.29862475442043,62.29862475442043 0 0,0 -0.40078006379437603,0.9947032506038341 l -38.17193569984482 -15.763239880600068" fill="red" stroke="none" /><path d="M 119.26925614724726 108.34839909993367 l 5.981419393448071 2.591448050667033 a27.518664047151276,27.518664047151276 0 0,0 -0.19205264535214336,0.4330280148514289 l -5.935925663364655 -2.69402440201115" fill="red" stroke="none" /><line stroke="#e1ed5e" stroke-width="0.3" x1="174.80103733775053" x2="179.2010983576182" y1="140.37084112569926" y2="142.7455964860345" /><path d="M 175.68104954172406 140.8457921977663 a86.0,86.0 0 0,1 -30.038265399797805,32.042727171017184" fill="none" id="id5" stroke="none" /><text fill="#e1ed5e" style="font-size:6.75px; font-family:Arial;" text-anchor="middle"><textPath startOffset="22.206326154141568" xlink:href="#id5">May</textPath></text><path d="M 118.12598468904814 110.60418214915192 l 12.072119468737368 7.06251031151769 a34.986247544204325,34.986247544204325 0 0,0 -0.308577244416313,0.5171932109716773 l -11.948761348622828 -7.269265616375472" fill="red" stroke="none" /><path d="M 116.498646956653 112.99209946851258 l 3.7924198309005916 2.9863961450215544 a25.827111984282908,25.827111984282908 0 0,0 -0.27804987633332306,0.3469099728487531 l -3.740452042512415 -3.0512339514485576" fill="red" stroke="none" /><path d="M 116.0416608686014 113.55231037782055 l 24.330377584597798 20.554781162431173 a52.850687622789785,52.850687622789785 0 0,0 -0.593079067268826,0.6898849429746221 l -23.972956007758196 -20.97054320456732" fill="red" stroke="none" /><path d="M 115.80600337817218 113.82643327865902 l 15.557578963584008 13.609121950114284 a41.66994106090373,41.66994106090373 0 0,0 -0.47690483665064504,0.5358076396104614 l -15.321015277285024 -13.874903759465612" fill="red" stroke="none" /><path d="M 115.32070863581623 114.36230785411682 l 25.1632856965469 23.589173607154542 a55.49115913555992,55.49115913555992 0 0,0 -0.6592705076528345,0.6912424915452414 l -24.753508637515104 -24.018823215282293" fill="red" stroke="none" /><path d="M 114.81725581225074 114.88116024355365 l 2.998383789119501 3.011315334157222 a25.24950884086444,25.24950884086444 0 0,0 -0.3106291338821492,0.30401598626991344 l -2.9461047028615575 -3.0624814233497073" fill="red" stroke="none" /><path d="M 113.75828350139079 115.86535959552629 l 29.760059204383612 34.31780140407552 a66.42436149312377,66.42436149312377 0 0,0 -0.8702683353849782,0.7416615554834098 l -29.164925392421587 -34.82498734978188" fill="red" stroke="none" /><path d="M 112.92097659922987 116.55440617244103 l 10.610939525497226 13.594777564008547 a38.245579567779956,38.245579567779956 0 0,0 -0.522455144767252,0.40059632637726256 l -10.37535565223648 -13.77541323221318" fill="red" stroke="none" /><path d="M 112.34349029814194 116.9893568818739 l 12.173736993452366 16.755711502358935 a41.71119842829077,41.71119842829077 0 0,0 -0.5844983723865967,0.4170240693035252 l -11.883511293216886 -16.962779833506676" fill="red" stroke="none" /><line stroke="#e1ed5e" stroke-width="0.3" x1="143.8653032363475" x2="146.44561519142675" y1="172.8068346515853" y2="177.08958963109032" /><path d="M 144.38136562736335 173.6633856474863 a86.0,86.0 0 0,1 -40.68145358897372,12.25698825130547" fill="none" id="id6" stroke="none" /><text fill="#e1ed5e" style="font-size:6.75px; font-family:Arial;" text-anchor="middle"><textPath startOffset="21.466115282336833" xlink:href="#id6">June</textPath></text><path d="M 110.21172684928248 118.3499491758327 l 24.73685501997114 44.45085920196801 a71.87033398821218,71.87033398821218 0 0,0 -1.0861906910114223,0.5922777694194102 l -23.96804151709107 -44.87007762314719" fill="red" stroke="none" /><path d="M 109.57404056367764 118.69057910512821 l 14.20118001095602 27.723747002695085 a52.149312377210215,52.149312377210215 0 0,0 -0.8024688815107873,0.40237455617022033 l -13.721857221762471 -27.964089399774608" fill="red" stroke="none" /><path d="M 109.2508944713604 118.85261126421891 l 9.105497308745694 18.556303032168316 a41.66994106090373,41.66994106090373 0 0,0 -0.6466526627107366,0.31043257511875116 l -8.784731978034724 -18.710289883786626" fill="red" stroke="none" /><path d="M 108.59647513512805 119.15986991738527 l 8.562697236758193 19.084585556216766 a41.917485265225935,41.917485265225935 0 0,0 -0.6608577496025976,0.28970061660674695 l -8.232918812497841 -19.229150726117968" fill="red" stroke="none" /><path d="M 107.93186726928326 119.44442032107085 l 8.009783450710405 19.63542641459806 a42.20628683693516,42.20628683693516 0 0,0 -0.6750572479551489,0.26861921055518956 l -7.67060512671339 -19.77039246955932" fill="red" stroke="none" /><path d="M 107.2578585660854 119.70592522655815 l 21.77357569825621 59.11777567967444 a84.0,84.0 0 0,0 -1.3611217574810608,0.4880498358401595 l -20.752734380145416 -59.48381305655456" fill="red" stroke="none" /><path d="M 106.2309692047433 120.05430185196036 l 4.100932580724965 13.198803772901215 a34.82121807465619,34.82121807465619 0 0,0 -0.5739283331481975,0.1729198987716456 l -3.873129273136522 -13.267439040778587" fill="red" stroke="none" /><path d="M 103.41894727170886 120.7198165907248 l 3.3652113617409407 20.39416132014366 a41.66994106090373,41.66994106090373 0 0,0 -0.7087146910715082,0.11068665929159759 l -3.0136608070609157 -20.449066286782365" fill="red" stroke="none" /><path d="M 100.90346689309514 120.98055641714683 l 0.35677179864857295 8.285052730543248 a29.292730844793713,29.292730844793713 0 0,0 -0.5039460713379114,0.01735692164533087 l -0.2141053756360093 -8.28996645061467" fill="red" stroke="none" /><line stroke="#e1ed5e" stroke-width="0.3" x1="102.19456741930631" x2="102.32365962044197" y1="184.97166512339345" y2="189.96999836594603" /><path d="M 102.22038585953345 185.97133177190398 a86.0,86.0 0 0,1 -42.740103519485714,-10.115201625700543" fill="none" id="id7" stroke="none" /><text fill="#e1ed5e" style="font-size:6.75px; font-family:Arial;" text-anchor="middle"><textPath startOffset="22.20632615414155" xlink:href="#id7">July</textPath></text><path d="M 100.54218724476979 120.99299961872073 l 0.5517740526340936 21.3641921463602 a42.3713163064833,42.3713163064833 0 0,0 -0.7292715097843419,0.012555070401381197 l -0.1839428529570838 -21.37052469404074" fill="red" stroke="none" /><path d="M 99.81925306533755 120.99922214144158 l -0.1814571387279195 21.081733819796945 a42.082514734774065,42.082514734774065 0 0,0 -0.7243008178968147,-0.012469495432725238 l 0.5443176465174021 -21.07548684708506" fill="red" stroke="none" /><path d="M 98.01472825383883 120.90594882070398 l -3.9822445045787056 41.935115414418 a63.1237721021611,63.1237721021611 0 0,0 -1.0808214679635406,-0.11203156436677028 l 4.70349856914784 -41.86035448159547" fill="red" stroke="none" /><line stroke="#e1ed5e" stroke-width="0.3" x1="58.666819895761336" x2="56.23545636021788" y1="174.27360380694188" y2="178.64263932499728" /><path d="M 58.180547188652646 175.14741091055294 a86.0,86.0 0 0,1 -31.652253787137756,-30.449443065178592" fill="none" id="id8" stroke="none" /><text fill="#e1ed5e" style="font-size:6.75px; font-family:Arial;" text-anchor="middle"><textPath startOffset="22.20632615414155" xlink:href="#id8">August</textPath></text><line stroke="#e1ed5e" stroke-width="0.3" x1="26.63291911575756" x2="22.317208475507996" y1="142.92168965132927" y2="145.44649492493687" /><path d="M 25.769776987707644 143.4266507060508 a86.0,86.0 0 0,1 -11.730757126820373,-40.83630448921669" fill="none" id="id9" stroke="none" /><text fill="#e1ed5e" style="font-size:6.75px; font-family:Arial;" text-anchor="middle"><textPath startOffset="21.46611528233685" xlink:href="#id9">September</textPath></text><line stroke="#e1ed5e" stroke-width="0.3" x1="15.007084014347285" x2="10.007500721073583" y1="101.09737516637583" y2="101.16192664675087" /><path d="M 14.007167355692545 101.11028546245083 a86.0,86.0 0 0,1 10.666146001902534,-42.60595125391555" fill="none" id="id10" stroke="none" /><text fill="#e1ed5e" style="font-size:6.75px; font-family:Arial;" text-anchor="middle"><textPath startOffset="22.20632615414155" xlink:href="#id10">October</textPath></text><line stroke="#e1ed5e" stroke-width="0.3" x1="26.266209847984243" x2="21.928928074336255" y1="57.711370442889674" y2="55.22380399835377" /><path d="M 25.398753493254645 57.213857153982495 a86.0,86.0 0 0,1 29.58750427330803,-30.492523968695096" fill="none" id="id11" stroke="none" /><text fill="#e1ed5e" style="font-size:6.75px; font-family:Arial;" text-anchor="middle"><textPath startOffset="21.46611528233685" xlink:href="#id11">November</textPath></text><line stroke="#e1ed5e" stroke-width="0.3" x1="56.762969772571076" x2="54.21961505331055" y1="26.818313649435495" y2="22.513508569990535" /><path d="M 56.25429882871897 25.957352633546506 a86.0,86.0 0 0,1 42.265352541879196,-11.944610805530505" fill="none" id="id12" stroke="none" /><text fill="#e1ed5e" style="font-size:6.75px; font-family:Arial;" text-anchor="middle"><textPath startOffset="22.20632615414155" xlink:href="#id12">December</textPath></text></svg>