<?xml version="1.0" encoding="utf-8" ?>
<svg baseProfile="full" height="200mm" version="1.1" viewBox="0,0,200,200" width="200mm" xmlns="http://www.w3.org/2000/svg" xmlns:ev="http://www.w3.org/2001/xml-events" xmlns:xlink="http://www.w3.org/1999/xlink"><defs /><rect fill="#1a1a1a" height="200" width="200" x="0" y="0" /><text alignment-baseline="middle" fill="#e1ed5e" style="dominant-baseline: central; font-size:9.0px; font-family:Arial;" text-anchor="middle" x="100.0" y="100.0">2025</text><line stroke="#e1ed5e" stroke-width="0.3" x1="100.0" x2="100.0" y1="15.0" y2="10.0" /><path d="M 100.0 14.0 a86.0,86.0 0 0,1 42.46469731375804,11.215312516191453" fill="none" id="id1" stroke="none" /><text fill="#e1ed5e" style="font-size:6.75px; font-family:Arial;" text-anchor="middle"><textPath startOffset="22.20632615414155" xlink:href="#id1">January</textPath></text><line stroke="#e1ed5e" stroke-width="0.3" x1="143.23703022742887" x2="145.7803849466894" y1="26.81831364943548" y2="22.513508569990506" /><path d="M 143.74570117128098 25.957352633546492 a86.0,86.0 0 0,1 28.547481713284135,27.462654790039103" fill="none" id="id2" stroke="none" /><text fill="#e1ed5e" style="font-size:6.75px; font-family:Arial;" text-anchor="middle"><textPath startOffset="19.985693538727396" xlink:href="#id2">February</textPath></text><path d="M 117.45458315368197 88.32363383020206 l 21.31922321933904 -14.261644324181422 a46.64963503649635,46.64963503649635 0 0,0 0.4407354547888432,0.6712703347649237 l -21.561555309485808 13.892555925438824" fill="red" stroke="none" /><line stroke="#e1ed5e" stroke-width="0.3" x1="172.23445277983987" x2="176.4835382374775" y1="55.19839476539836" y2="52.563006222186495" /><path d="M 173.08426987136738 54.67131705675599 a86.0,86.0 0 0,1 12.851231095245387,41.99856678651699" fill="none" id="id3" stroke="none" /><text fill="#e1ed5e" style="font-size:6.75px; font-family:Arial;" text-anchor="middle"><textPath startOffset="22.20632615414155" xlink:href="#id3">March</textPath></text><path d="M 118.73160827565052 90.50648371742162 l 9.570894739383478 -4.850701750222536 a31.72992700729927,31.72992700729927 0 0,0 0.2427188125448505,0.4893063151877181 l -9.652973564881735 4.685235846535868" fill="red" stroke="none" /><path d="M 118.89224826269711 90.83032412892265 l 17.74308474306833 -8.61190969887069 a40.722627737226276,40.722627737226276 0 0,0 0.3006528455185409,0.6332515686970543 l -17.888695782428627 8.305215714533094" fill="red" stroke="none" /><path d="M 119.196687751892 91.48605970444005 l 24.5213164713949 -10.875471180459783 a47.824817518248175,47.824817518248175 0 0,0 0.3272795513071796,0.7554063276567878 l -24.70488673254476 10.451765708216392" fill="red" stroke="none" /><path d="M 120.28053869075195 94.5502522615342 l 18.701518646703136 -5.025436479023204 a40.36496350364963,40.36496350364963 0 0,0 0.17453746428822597,0.6725640482151051 l -18.785252442861665 4.702776005259249" fill="red" stroke="none" /><path d="M 120.45610955862082 95.25157060432595 l 21.60085534900594 -5.0141565881327 a43.175182481751825,43.175182481751825 0 0,0 0.1618156763583412,0.7253879482488578 l -21.683965412366316 4.6415904703338775" fill="red" stroke="none" /><path d="M 120.6074358757038 95.95851677861258 l 26.724484967761853 -5.241144907541361 a48.23357664233576,48.23357664233576 0 0,0 0.15277244921920397,0.8161165325434081 l -26.810743140890917 4.780350297535391" fill="red" stroke="none" /><path d="M 120.78858239683441 97.02765380044208 l 10.21725947484319 -1.4608611491744485 a31.32116788321168,31.32116788321168 0 0,0 0.07171652695266767,0.5343714265556223 l -10.240892000853695 1.2847713805541618" fill="red" stroke="none" /><path d="M 120.87857604477298 97.74499172005257 l 50.901054006964806 -5.49761142702512 a72.1970802919708,72.1970802919708 0 0,0 0.12281367739905324,1.236716971081833 l -50.98814481004609 4.620618925238852" fill="red" stroke="none" /><line stroke="#e1ed5e" stroke-width="0.3" x1="184.98032266829074" x2="189.97916517819016" y1="98.17113171792111" y2="98.06355123074" /><path d="M 185.9800911702706 98.14961562048488 a86.0,86.0 0 0,1 -9.607161424134198,41.387399972396054" fill="none" id="id4" stroke="none" /><text fill="#e1ed5e" style="font-size:6.75px; font-family:Arial;" text-anchor="middle"><textPath startOffset="21.466115282336823" xlink:href="#id4">April</textPath></text><path d="M 120.99513854157772 99.54816195383933 l 15.835749264936961 -0.34080241924527227 a36.839416058394164,36.839416058394164 0 0,0 0.008187109168192428,0.6341006275873635 l -15.839269381222868 0.06816553359744605" fill="red" stroke="none" /><path d="M 120.89721153311464 102.0752229133903 l 26.235915209457804 2.605389351117749 a47.36496350364963,47.36496350364963 0 0,0 -0.08755232727135012,0.8106258141430617 l -26.187180580685403 -3.056611487145602" fill="red" stroke="none" /><path d="M 120.76222939487914 103.15116336523771 l 26.52109594236388 4.025208678223345 a47.824817518248175,47.824817518248175 0 0,0 -0.13053498276845263,0.8128414623045259 l -26.447879205234138 -4.481129370221076" fill="red" stroke="none" /><path d="M 120.49622156327973 104.57218783832717 l 7.979064355534691 1.779927139008143 a29.175182481751825,29.175182481751825 0 0,0 -0.11356013833005921,0.48921410378094754 l -7.9472436512740785 -1.9170099001376555" fill="red" stroke="none" /><path d="M 120.32669344350535 105.2749913415812 l 29.72346170206013 7.713551815791496 a51.70802919708029,51.70802919708029 0 0,0 -0.23099188988350716,0.8596067533487717 l -29.58628173583485 -8.224049502315816" fill="red" stroke="none" /><path d="M 120.23288151984713 105.62410040840565 l 26.38643429352326 7.334593233346552 a48.386861313868614,48.386861313868614 0 0,0 -0.22996976367120162,0.8005549165381043 l -26.25627189296596 -7.787705625389238" fill="red" stroke="none" /><path d="M 119.79798401119884 107.00284435728193 l 24.566841473750383 8.689660881298737 a47.058394160583944,47.058394160583944 0 0,0 -0.27669380928025833,0.7613425278767719 l -24.413623403464896 -9.111251206181642" fill="red" stroke="none" /><path d="M 119.54520255179757 107.68017299344265 l 47.602792589657824 18.70523884777638 a72.14598540145985,72.14598540145985 0 0,0 -0.46413019140769307,1.1519330720339351 l -47.27375978399274 -19.521871287653127" fill="red" stroke="none" /><path d="M 119.26925614724726 108.34839909993367 l 7.407645915486785 3.2093602379307056 a29.072992700729927,29.072992700729927 0 0,0 -0.2029002987540285,0.45748660957581677 l -7.351304532001484 -3.33639518399921" fill="red" stroke="none" /><line stroke="#e1ed5e" stroke-width="0.3" x1="174.80103733775053" x2="179.2010983576182" y1="140.37084112569926" y2="142.7455964860345" /><path d="M 175.68104954172406 140.8457921977663 a86.0,86.0 0 0,1 -30.038265399797805,32.042727171017184" fill="none" id="id5" stroke="none" /><text fill="#e1ed5e" style="font-size:6.75px; font-family:Arial;" text-anchor="middle"><textPath startOffset="22.206326154141568" xlink:href="#id5">May</textPath></text><path d="M 118.12598468904814 110.60418214915192 l 14.950629707025108 8.746515203315095 a38.32116788321168,38.32116788321168 0 0,0 -0.3379911027404613,0.5664925294049195 l -14.79785772858642 -9.002569826606118" fill="red" stroke="none" /><path d="M 116.498646956653 112.99209946851258 l 4.696695119047205 3.69848087059847 a26.978102189781023,26.978102189781023 0 0,0 -0.2904412224696767,0.362370082410423 l -4.632335984522674 -3.7787787865871434" fill="red" stroke="none" /><path d="M 116.0416608686014 113.55231037782055 l 30.13178148554812 25.455921196295535 a60.44525547445255,60.44525547445255 0 0,0 -0.678303676831554,0.7890204177418793 l -29.68913529914579 -25.970818713198945" fill="red" stroke="none" /><path d="M 115.80600337817218 113.82643327865902 l 19.267172001129587 16.85411939807341 a46.5985401459854,46.5985401459854 0 0,0 -0.5333117496854392,0.599181404370632 l -18.974201401795813 -17.183274972184908" fill="red" stroke="none" /><path d="M 115.32070863581623 114.36230785411682 l 31.16329055849726 29.21384273976074 a63.715328467153284,63.715328467153284 0 0,0 -0.7569789061567671,0.7936893567435854 l -30.65580510096153 -29.74593921308683" fill="red" stroke="none" /><path d="M 114.81725581225074 114.88116024355365 l 3.7133268823888717 3.7293418615231784 a26.26277372262774,26.26277372262774 0 0,0 -0.3230947067611722,0.31621617298734306 l -3.648582223251905 -3.7927081374330935" fill="red" stroke="none" /><path d="M 113.75828350139079 115.86535959552629 l 36.85613171540453 42.500634828891585 a77.25547445255475,77.25547445255475 0 0,0 -1.0121737212056072,0.862596403851349 l -36.11909251762188 -43.12875562296588" fill="red" stroke="none" /><path d="M 112.92097659922987 116.55440617244103 l 13.141041894107275 16.836354696059253 a42.35766423357664,42.35766423357664 0 0,0 -0.5786284284157998,0.4436676049272727 l -12.849284737197982 -17.060061642813896" fill="red" stroke="none" /><path d="M 112.34349029814194 116.9893568818739 l 15.076477201136868 20.75099064404062 a46.64963503649635,46.64963503649635 0 0,0 -0.6537006074792417,0.46639802660882673 l -14.717049265808742 -21.007432932493664" fill="red" stroke="none" /><line stroke="#e1ed5e" stroke-width="0.3" x1="143.8653032363475" x2="146.44561519142675" y1="172.8068346515853" y2="177.08958963109032" /><path d="M 144.38136562736335 173.6633856474863 a86.0,86.0 0 0,1 -40.68145358897372,12.25698825130547" fill="none" id="id6" stroke="none" /><text fill="#e1ed5e" style="font-size:6.75px; font-family:Arial;" text-anchor="middle"><textPath startOffset="21.466115282336833" xlink:href="#id6">June</textPath></text><path d="M 110.21172684928248 118.3499491758327 l 30.635180547847472 55.049847527498095 a84.0,84.0 0 0,0 -1.2695087525254052,0.692237392960918 l -29.683048983453418 -55.56902557221878" fill="red" stroke="none" /><line stroke="#e1ed5e" stroke-width="0.3" x1="102.19456741930631" x2="102.32365962044197" y1="184.97166512339345" y2="189.96999836594603" /><path d="M 102.22038585953345 185.97133177190398 a86.0,86.0 0 0,1 -42.740103519485714,-10.115201625700543" fill="none" id="id7" stroke="none" /><text fill="#e1ed5e" style="font-size:6.75px; font-family:Arial;" text-anchor="middle"><textPath startOffset="22.20632615414155" xlink:href="#id7">July</textPath></text><line stroke="#e1ed5e" stroke-width="0.3" x1="58.666819895761336" x2="56.23545636021788" y1="174.27360380694188" y2="178.64263932499728" /><path d="M 58.180547188652646 175.14741091055294 a86.0,86.0 0 0,1 -31.652253787137756,-30.449443065178592" fill="none" id="id8" stroke="none" /><text fill="#e1ed5e" style="font-size:6.75px; font-family:Arial;" text-anchor="middle"><textPath startOffset="22.20632615414155" xlink:href="#id8">August</textPath></text><line stroke="#e1ed5e" stroke-width="0.3" x1="26.63291911575756" x2="22.317208475507996" y1="142.92168965132927" y2="145.44649492493687" /><path d="M 25.769776987707644 143.4266507060508 a86.0,86.0 0 0,1 -11.730757126820373,-40.83630448921669" fill="none" id="id9" stroke="none" /><text fill="#e1ed5e" style="font-size:6.75px; font-family:Arial;" text-anchor="middle"><textPath startOffset="21.46611528233685" xlink:href="#id9">September</textPath></text><line stroke="#e1ed5e" stroke-width="0.3" x1="15.007084014347285" x2="10.007500721073583" y1="101.09737516637583" y2="101.16192664675087" /><path d="M 14.007167355692545 101.11028546245083 a86.0,86.0 0 0,1 10.666146001902534,-42.60595125391555" fill="none" id="id10" stroke="none" /><text fill="#e1ed5e" style="font-size:6.75px; font-family:Arial;" text-anchor="middle"><textPath startOffset="22.20632615414155" xlink:href="#id10">October</textPath></text><line stroke="#e1ed5e" stroke-width="0.3" x1="26.266209847984243" x2="21.928928074336255" y1="57.711370442889674" y2="55.22380399835377" /><path d="M 25.398753493254645 57.213857153982495 a86.0,86.0 0 0,1 29.58750427330803,-30.492523968695096" fill="none" id="id11" stroke="none" /><text fill="#e1ed5e" style="font-size:6.75px; font-family:Arial;" text-anchor="middle"><textPath startOffset="21.46611528233685" xlink:href="#id11">November</textPath></text><line stroke="#e1ed5e" stroke-width="0.3" x1="56.762969772571076" x2="54.21961505331055" y1="26.818313649435495" y2="22.513508569990535" /><path d="M 56.25429882871897 25.957352633546506 a86.0,86.0 0 0,1 42.265352541879196,-11.944610805530505" fill="none" id="id12" stroke="none" /><text fill="#e1ed5e" style="font-size:6.75px; font-family:Arial;" text-anchor="middle"><textPath startOffset="22.20632615414155" xlink:href="#id12">December</textPath></text></svg>