<?xml version="1.0" encoding="utf-8" ?>
<svg baseProfile="full" height="200mm" version="1.1" viewBox="0,0,200,200" width="200mm" xmlns="http://www.w3.org/2000/svg" xmlns:ev="http://www.w3.org/2001/xml-events" xmlns:xlink="http://www.w3.org/1999/xlink"><defs /><rect fill="#1a1a1a" height="200" width="200" x="0" y="0" /><text alignment-baseline="middle" fill="#e1ed5e" style="dominant-baseline: central; font-size:9.0px; font-family:Arial;" text-anchor="middle" x="100.0" y="100.0">2025</text><line stroke="#e1ed5e" stroke-width="0.3" x1="100.0" x2="100.0" y1="15.0" y2="10.0" /><path d="M 100.0 14.0 a86.0,86.0 0 0,1 42.46469731375804,11.215312516191453" fill="none" id="id1" stroke="none" /><text fill="#e1ed5e" style="font-size:6.75px; font-family:Arial;" text-anchor="middle"><textPath startOffset="22.20632615414155" xlink:href="#id1">January</textPath></text><line stroke="#e1ed5e" stroke-width="0.3" x1="143.23703022742887" x2="145.7803849466894" y1="26.81831364943548" y2="22.513508569990506" /><path d="M 143.74570117128098 25.957352633546492 a86.0,86.0 0 0,1 28.547481713284135,27.462654790039103" fill="none" id="id2" stroke="none" /><text fill="#e1ed5e" style="font-size:6.75px; font-family:Arial;" text-anchor="middle"><textPath startOffset="19.985693538727396" xlink:href="#id2">February</textPath></text><path d="M 117.45458315368197 88.32363383020206 l 23.875206384600396 -15.971487240432054 a49.724795640326974,49.724795640326974 0 0,0 0.4697888933895456,0.7155207149956438 l -24.14659191334787 15.558148461458737" fill="red" stroke="none" /><line stroke="#e1ed5e" stroke-width="0.3" x1="172.23445277983987" x2="176.4835382374775" y1="55.19839476539836" y2="52.563006222186495" /><path d="M 173.08426987136738 54.67131705675599 a86.0,86.0 0 0,1 12.851231095245387,41.99856678651699" fill="none" id="id3" stroke="none" /><text fill="#e1ed5e" style="font-size:6.75px; font-family:Arial;" text-anchor="middle"><textPath startOffset="22.20632615414155" xlink:href="#id3">March</textPath></text><path d="M 118.73160827565052 90.50648371742162 l 10.718358958819097 -5.432257273409979 a33.01634877384196,33.01634877384196 0 0,0 0.2525593256836063,0.5091441891991987 l -10.810278297456112 5.24695349571183" fill="red" stroke="none" /><path d="M 118.89224826269711 90.83032412892265 l 19.870321061038382 -9.64440023497508 a43.08719346049047,43.08719346049047 0 0,0 0.3181102998287673,0.6700214196803083 l -20.033389554708904 9.300936399654232" fill="red" stroke="none" /><path d="M 119.196687751892 91.48605970444005 l 27.461201824913637 -12.179342384656598 a51.04087193460491,51.04087193460491 0 0,0 0.3492879749872719,0.8062048038930527 l -27.666780509743592 11.704838436176942" fill="red" stroke="none" /><path d="M 120.28053869075195 94.5502522615342 l 20.943662571648474 -5.627941125009638 a42.6866485013624,42.6866485013624 0 0,0 0.18457639352794059,0.711248137712691 l -21.03743529704672 5.266596561748097" fill="red" stroke="none" /><path d="M 120.45610955862082 95.25157060432595 l 24.190603674227358 -5.615308876628173 a45.833787465940055,45.833787465940055 0 0,0 0.17177982564405422,0.7700552757233758 l -24.283677886873452 5.198075431354833" fill="red" stroke="none" /><path d="M 120.6074358757038 95.95851677861258 l 29.928510413488077 -5.869511054494551 a51.49863760217984,51.49863760217984 0 0,0 0.16311402855892818,0.8713616628983475 l -30.025110165956868 5.353471314133641" fill="red" stroke="none" /><path d="M 120.78858239683441 97.02765380044208 l 11.442217014061448 -1.6360052651517665 a32.55858310626703,32.55858310626703 0 0,0 0.0745498543217744,0.5554830064447029 l -11.468682867441059 1.4388039166423991" fill="red" stroke="none" /><path d="M 120.87857604477298 97.74499172005257 l 57.003632688998735 -6.156725603562192 a78.33514986376022,78.33514986376022 0 0,0 0.13325508158318514,1.3418604862823666 l -57.10116489626415 5.17458958657539" fill="red" stroke="none" /><line stroke="#e1ed5e" stroke-width="0.3" x1="184.98032266829074" x2="189.97916517819016" y1="98.17113171792111" y2="98.06355123074" /><path d="M 185.9800911702706 98.14961562048488 a86.0,86.0 0 0,1 -9.607161424134198,41.387399972396054" fill="none" id="id4" stroke="none" /><text fill="#e1ed5e" style="font-size:6.75px; font-family:Arial;" text-anchor="middle"><textPath startOffset="21.466115282336823" xlink:href="#id4">April</textPath></text><path d="M 120.99513854157772 99.54816195383933 l 17.734313209507057 -0.381661564876858 a38.73841961852861,38.73841961852861 0 0,0 0.008609139458601013,0.6667873386732064 l -17.73825535608337 0.07633796814318888" fill="red" stroke="none" /><path d="M 120.89721153311464 102.0752229133903 l 29.381365534297434 2.9177521071100676 a50.525885558583106,50.525885558583106 0 0,0 -0.0933951710478779,0.8647232909420414 l -29.326788061748505 -3.4230717199369005" fill="red" stroke="none" /><path d="M 120.76222939487914 103.15116336523771 l 29.70073687278353 4.507795004767834 a51.04087193460491,51.04087193460491 0 0,0 -0.13931301119817638,0.8675022537156981 l -29.618742107224065 -5.018376488176737" fill="red" stroke="none" /><path d="M 120.49622156327973 104.57218783832717 l 8.935682425408059 1.9933243981807813 a30.155313351498638,30.155313351498638 0 0,0 -0.117375154644683,0.5056490942160934 l -8.900046704832823 -2.1468421497454395" fill="red" stroke="none" /><path d="M 120.32669344350535 105.2749913415812 l 33.2870374919529 8.638337319592113 a55.38964577656676,55.38964577656676 0 0,0 -0.24743853433558488,0.9208108356568646 l -33.13341088127554 -9.210039088424525" fill="red" stroke="none" /><path d="M 120.23288151984713 105.62410040840565 l 29.549930503100978 8.213945010641506 a51.67029972752044,51.67029972752044 0 0,0 -0.24557506510041482,0.85487901803641 l -29.404162801114467 -8.721381504182498" fill="red" stroke="none" /><path d="M 119.79798401119884 107.00284435728193 l 27.512184865698654 9.731473085051174 a50.182561307901906,50.182561307901906 0 0,0 -0.2950632781973192,0.8118874169635504 l -27.340597326496106 -10.203608299020855" fill="red" stroke="none" /><path d="M 119.54520255179757 107.68017299344265 l 53.30993938514814 20.947828791378996 a78.27792915531336,78.27792915531336 0 0,0 -0.5035782662013274,1.249839958558668 l -52.94145850468942 -21.86236811778048" fill="red" stroke="none" /><path d="M 119.26925614724726 108.34839909993367 l 8.295756052493376 3.5941336724510085 a30.040871934604905,30.040871934604905 0 0,0 -0.20965512402202108,0.4727169573333487 l -8.23265984374008 -3.736398966277045" fill="red" stroke="none" /><line stroke="#e1ed5e" stroke-width="0.3" x1="174.80103733775053" x2="179.2010983576182" y1="140.37084112569926" y2="142.7455964860345" /><path d="M 175.68104954172406 140.8457921977663 a86.0,86.0 0 0,1 -30.038265399797805,32.042727171017184" fill="none" id="id5" stroke="none" /><text fill="#e1ed5e" style="font-size:6.75px; font-family:Arial;" text-anchor="middle"><textPath startOffset="22.206326154141568" xlink:href="#id5">May</textPath></text><path d="M 118.12598468904814 110.60418214915192 l 16.743075775442286 9.795143729053143 a40.39782016348774,40.39782016348774 0 0,0 -0.35630708925627136,0.5971911763389931 l -16.571987810487787 -10.081896999278241" fill="red" stroke="none" /><path d="M 116.498646956653 112.99209946851258 l 5.259786631957497 4.141895470888205 a27.69482288828338,27.69482288828338 0 0,0 -0.2981573039930537,0.37199708051260727 l -5.18771141590959 -4.231820384979063" fill="red" stroke="none" /><path d="M 116.0416608686014 113.55231037782055 l 33.74431114594082 28.507857252527163 a65.17438692098094,65.17438692098094 0 0,0 -0.7313729743838775,0.8507520001499174 l -33.248595661986165 -29.084486351838606" fill="red" stroke="none" /><path d="M 115.80600337817218 113.82643327865902 l 21.577132677014337 18.874776764599922 a49.66757493188011,49.66757493188011 0 0,0 -0.5684362902050201,0.6386441979970787 l -21.249037537160977 -19.243395132337866" fill="red" stroke="none" /><path d="M 115.32070863581623 114.36230785411682 l 34.89948888158685 32.71631979847865 a68.83651226158038,68.83651226158038 0 0,0 -0.817821849294566,0.8574829393766864 l -34.33116048091332 -33.31220985443784" fill="red" stroke="none" /><path d="M 114.81725581225074 114.88116024355365 l 4.158521385999526 4.176456417128136 a26.893732970027248,26.893732970027248 0 0,0 -0.3308570092190101,0.32381321969043914 l -4.086014424404722 -4.247419739741147" fill="red" stroke="none" /><path d="M 113.75828350139079 115.86535959552629 l 41.27485050417237 47.59607878657886 a84.0,84.0 0 0,0 -1.100538093691811,0.9379024391082127 l -40.449446933903516 -48.299505615910014" fill="red" stroke="none" /><line stroke="#e1ed5e" stroke-width="0.3" x1="143.8653032363475" x2="146.44561519142675" y1="172.8068346515853" y2="177.08958963109032" /><path d="M 144.38136562736335 173.6633856474863 a86.0,86.0 0 0,1 -40.68145358897372,12.25698825130547" fill="none" id="id6" stroke="none" /><text fill="#e1ed5e" style="font-size:6.75px; font-family:Arial;" text-anchor="middle"><textPath startOffset="21.466115282336833" xlink:href="#id6">June</textPath></text><line stroke="#e1ed5e" stroke-width="0.3" x1="102.19456741930631" x2="102.32365962044197" y1="184.97166512339345" y2="189.96999836594603" /><path d="M 102.22038585953345 185.97133177190398 a86.0,86.0 0 0,1 -42.740103519485714,-10.115201625700543" fill="none" id="id7" stroke="none" /><text fill="#e1ed5e" style="font-size:6.75px; font-family:Arial;" text-anchor="middle"><textPath startOffset="22.20632615414155" xlink:href="#id7">July</textPath></text><line stroke="#e1ed5e" stroke-width="0.3" x1="58.666819895761336" x2="56.23545636021788" y1="174.27360380694188" y2="178.64263932499728" /><path d="M 58.180547188652646 175.14741091055294 a86.0,86.0 0 0,1 -31.652253787137756,-30.449443065178592" fill="none" id="id8" stroke="none" /><text fill="#e1ed5e" style="font-size:6.75px; font-family:Arial;" text-anchor="middle"><textPath startOffset="22.20632615414155" xlink:href="#id8">August</textPath></text><line stroke="#e1ed5e" stroke-width="0.3" x1="26.63291911575756" x2="22.317208475507996" y1="142.92168965132927" y2="145.44649492493687" /><path d="M 25.769776987707644 143.4266507060508 a86.0,86.0 0 0,1 -11.730757126820373,-40.83630448921669" fill="none" id="id9" stroke="none" /><text fill="#e1ed5e" style="font-size:6.75px; font-family:Arial;" text-anchor="middle"><textPath startOffset="21.46611528233685" xlink:href="#id9">September</textPath></text><line stroke="#e1ed5e" stroke-width="0.3" x1="15.007084014347285" x2="10.007500721073583" y1="101.09737516637583" y2="101.16192664675087" /><path d="M 14.007167355692545 101.11028546245083 a86.0,86.0 0 0,1 10.666146001902534,-42.60595125391555" fill="none" id="id10" stroke="none" /><text fill="#e1ed5e" style="font-size:6.75px; font-family:Arial;" text-anchor="middle"><textPath startOffset="22.20632615414155" xlink:href="#id10">October</textPath></text><line stroke="#e1ed5e" stroke-width="0.3" x1="26.266209847984243" x2="21.928928074336255" y1="57.711370442889674" y2="55.22380399835377" /><path d="M 25.398753493254645 57.213857153982495 a86.0,86.0 0 0,1 29.58750427330803,-30.492523968695096" fill="none" id="id11" stroke="none" /><text fill="#e1ed5e" style="font-size:6.75px; font-family:Arial;" text-anchor="middle"><textPath startOffset="21.46611528233685" xlink:href="#id11">November</textPath></text><line stroke="#e1ed5e" stroke-width="0.3" x1="56.762969772571076" x2="54.21961505331055" y1="26.818313649435495" y2="22.513508569990535" /><path d="M 56.25429882871897 25.957352633546506 a86.0,86.0 0 0,1 42.265352541879196,-11.944610805530505" fill="none" id="id12" stroke="none" /><text fill="#e1ed5e" style="font-size:6.75px; font-family:Arial;" text-anchor="middle"><textPath startOffset="22.20632615414155" xlink:href="#id12">December</textPath></text></svg>