<?xml version="1.0" encoding="utf-8" ?>
<svg baseProfile="full" height="200mm" version="1.1" viewBox="0,0,200,200" width="200mm" xmlns="http://www.w3.org/2000/svg" xmlns:ev="http://www.w3.org/2001/xml-events" xmlns:xlink="http://www.w3.org/1999/xlink"><defs /><rect fill="#1a1a1a" height="200" width="200" x="0" y="0" /><text alignment-baseline="middle" fill="#e1ed5e" style="dominant-baseline: central; font-size:9.0px; font-family:Arial;" text-anchor="middle" x="100.0" y="100.0">2025</text><line stroke="#e1ed5e" stroke-width="0.3" x1="100.0" x2="100.0" y1="15.0" y2="10.0" /><path d="M 100.0 14.0 a86.0,86.0 0 0,1 42.46469731375804,11.215312516191453" fill="none" id="id1" stroke="none" /><text fill="#e1ed5e" style="font-size:6.75px; font-family:Arial;" text-anchor="middle"><textPath startOffset="22.20632615414155" xlink:href="#id1">January</textPath></text><line stroke="#e1ed5e" stroke-width="0.3" x1="143.23703022742887" x2="145.7803849466894" y1="26.81831364943548" y2="22.513508569990506" /><path d="M 143.74570117128098 25.957352633546492 a86.0,86.0 0 0,1 28.547481713284135,27.462654790039103" fill="none" id="id2" stroke="none" /><text fill="#e1ed5e" style="font-size:6.75px; font-family:Arial;" text-anchor="middle"><textPath startOffset="19.985693538727396" xlink:href="#id2">February</textPath></text><path d="M 117.45458315368197 88.32363383020206 l 26.234133961521994 -17.549508434846 a52.56287425149701,52.56287425149701 0 0,0 0.4966024336550143,0.7563595763912112 l -26.532333030534936 17.095330794477118" fill="red" stroke="none" /><line stroke="#e1ed5e" stroke-width="0.3" x1="172.23445277983987" x2="176.4835382374775" y1="55.19839476539836" y2="52.563006222186495" /><path d="M 173.08426987136738 54.67131705675599 a86.0,86.0 0 0,1 12.851231095245387,41.99856678651699" fill="none" id="id3" stroke="none" /><text fill="#e1ed5e" style="font-size:6.75px; font-family:Arial;" text-anchor="middle"><textPath startOffset="22.20632615414155" xlink:href="#id3">March</textPath></text><path d="M 118.73160827565052 90.50648371742162 l 11.777358496666492 -5.96897730341755 a34.203592814371255,34.203592814371255 0 0,0 0.2616411765070239,0.5274526462771595 l -11.878359686126924 5.765365068641441" fill="red" stroke="none" /><path d="M 118.89224826269711 90.83032412892265 l 21.83355637545235 -10.597290078550461 a45.26946107784431,45.26946107784431 0 0,0 0.33422185758663336,0.703956469277877 l -22.01273642688074 10.219891193632042" fill="red" stroke="none" /><path d="M 119.196687751892 91.48605970444005 l 30.174434340548814 -13.382690584338235 a54.00898203592814,54.00898203592814 0 0,0 0.3695996414525067,0.8530869305392461 l -30.400324691844 12.861304509212387" fill="red" stroke="none" /><path d="M 120.28053869075195 94.5502522615342 l 23.01294659818859 -6.183995188259093 a44.82934131736527,44.82934131736527 0 0,0 0.19384136340261732,0.7469498460588911 l -23.115984293461512 5.786948916651352" fill="red" stroke="none" /><path d="M 120.45610955862082 95.25157060432595 l 26.580693258806704 -6.170114843480656 a48.287425149700596,48.287425149700596 0 0,0 0.18097578078573393,0.8112789394779273 l -26.682963426594476 5.711657734452765" fill="red" stroke="none" /><path d="M 120.6074358757038 95.95851677861258 l 32.88551892739558 -6.449432805387724 a54.51197604790419,54.51197604790419 0 0,0 0.172658315479497,0.9223476252693356 l -32.991662966784936 5.882407102655826" fill="red" stroke="none" /><path d="M 120.78858239683441 97.02765380044208 l 12.572735461558533 -1.797646503924246 a33.700598802395206,33.700598802395206 0 0,0 0.0771647440269455,0.5749669720159877 l -12.601816204643315 1.5809611898435938" fill="red" stroke="none" /><path d="M 120.87857604477298 97.74499172005257 l 62.63572813431897 -6.7650248398422885 a84.0,84.0 0 0,0 0.1428914972710853,1.43889787718226 l -62.74289675727228 5.6858514319555935" fill="red" stroke="none" /><line stroke="#e1ed5e" stroke-width="0.3" x1="184.98032266829074" x2="189.97916517819016" y1="98.17113171792111" y2="98.06355123074" /><path d="M 185.9800911702706 98.14961562048488 a86.0,86.0 0 0,1 -9.607161424134198,41.387399972396054" fill="none" id="id4" stroke="none" /><text fill="#e1ed5e" style="font-size:6.75px; font-family:Arial;" text-anchor="middle"><textPath startOffset="21.466115282336823" xlink:href="#id4">April</textPath></text><path d="M 120.99513854157772 99.54816195383933 l 19.486505832003264 -0.4193706416461284 a40.49101796407186,40.49101796407186 0 0,0 0.008998632982608338,0.696954041344497 l -19.49083747210359 0.08388034224116862" fill="red" stroke="none" /><path d="M 120.89721153311464 102.0752229133903 l 32.28431482361425 3.206033003920344 a53.44311377245509,53.44311377245509 0 0,0 -0.0987875560601973,0.9146500790357105 l -32.224344966053 -3.7612794048408458" fill="red" stroke="none" /><path d="M 120.76222939487914 103.15116336523771 l 32.63524081530405 4.953175948352679 a54.00898203592814,54.00898203592814 0 0,0 -0.14741429043009951,0.9179489272261585 l -32.545144770512664 -5.514204105272042" fill="red" stroke="none" /><path d="M 120.49622156327973 104.57218783832717 l 9.81854925187053 2.190269623150739 a31.059880239520957,31.059880239520957 0 0,0 -0.12089604919253563,0.5208170157778711 l -9.779392636747442 -2.3589552962771747" fill="red" stroke="none" /><path d="M 120.32669344350535 105.2749913415812 l 36.57587652558896 9.491825737396121 a58.787425149700596,58.787425149700596 0 0,0 -0.26261721143843797,0.977296339763061 l -36.40707123780874 -10.12001301033473" fill="red" stroke="none" /><path d="M 120.23288151984713 105.62410040840565 l 32.46953441508401 9.025502451812674 a54.70059880239521,54.70059880239521 0 0,0 -0.2599772632008788,0.9050149590150111 l -32.309364514997036 -9.583074886332266" fill="red" stroke="none" /><path d="M 119.79798401119884 107.00284435728193 l 30.230454627878462 10.6929659347718 a53.06586826347306,53.06586826347306 0 0,0 -0.31201653805864865,0.858535506966543 l -30.04191382881459 -11.211749238744474" fill="red" stroke="none" /><path d="M 119.54520255179757 107.68017299344265 l 58.57708908487834 23.017524450407457 a83.937125748503,83.937125748503 0 0,0 -0.539985059779584,1.3401986345204908 l -58.17220141084137 -24.022422452770762" fill="red" stroke="none" /><path d="M 119.26925614724726 108.34839909993367 l 9.1153966205541 3.9492426879925753 a30.934131736526947,30.934131736526947 0 0,0 -0.21588918057549022,0.48677310911855587 l -9.046066355247335 -4.105564133603819" fill="red" stroke="none" /><line stroke="#e1ed5e" stroke-width="0.3" x1="174.80103733775053" x2="179.2010983576182" y1="140.37084112569926" y2="142.7455964860345" /><path d="M 175.68104954172406 140.8457921977663 a86.0,86.0 0 0,1 -30.038265399797805,32.042727171017184" fill="none" id="id5" stroke="none" /><text fill="#e1ed5e" style="font-size:6.75px; font-family:Arial;" text-anchor="middle"><textPath startOffset="22.206326154141568" xlink:href="#id5">May</textPath></text><path d="M 118.12598468904814 110.60418214915192 l 18.397331765231495 10.7629273909057 a42.31437125748503,42.31437125748503 0 0,0 -0.3732109899853086,0.625523086271413 l -18.20933989954796 -11.078012571063216" fill="red" stroke="none" /><path d="M 116.498646956653 112.99209946851258 l 5.779466149486232 4.5511246641196745 a28.356287425149702,28.356287425149702 0 0,0 -0.305278507973835,0.38088187741379975 l -5.700269729457543 -4.649934375111725" fill="red" stroke="none" /><path d="M 116.0416608686014 113.55231037782055 l 37.078329911857125 31.32450183136966 a69.53892215568862,69.53892215568862 0 0,0 -0.780350851541074,0.9077243363094313 l -36.53363655074527 -31.95810326684062" fill="red" stroke="none" /><path d="M 115.80600337817218 113.82643327865902 l 23.709005067258264 20.739649917988537 a52.5,52.5 0 0,0 -0.6008528758791543,0.6750645756478337 l -23.348493341730773 -21.144688663377238" fill="red" stroke="none" /><line stroke="#e1ed5e" stroke-width="0.3" x1="143.8653032363475" x2="146.44561519142675" y1="172.8068346515853" y2="177.08958963109032" /><path d="M 144.38136562736335 173.6633856474863 a86.0,86.0 0 0,1 -40.68145358897372,12.25698825130547" fill="none" id="id6" stroke="none" /><text fill="#e1ed5e" style="font-size:6.75px; font-family:Arial;" text-anchor="middle"><textPath startOffset="21.466115282336833" xlink:href="#id6">June</textPath></text><line stroke="#e1ed5e" stroke-width="0.3" x1="102.19456741930631" x2="102.32365962044197" y1="184.97166512339345" y2="189.96999836594603" /><path d="M 102.22038585953345 185.97133177190398 a86.0,86.0 0 0,1 -42.740103519485714,-10.115201625700543" fill="none" id="id7" stroke="none" /><text fill="#e1ed5e" style="font-size:6.75px; font-family:Arial;" text-anchor="middle"><textPath startOffset="22.20632615414155" xlink:href="#id7">July</textPath></text><line stroke="#e1ed5e" stroke-width="0.3" x1="58.666819895761336" x2="56.23545636021788" y1="174.27360380694188" y2="178.64263932499728" /><path d="M 58.180547188652646 175.14741091055294 a86.0,86.0 0 0,1 -31.652253787137756,-30.449443065178592" fill="none" id="id8" stroke="none" /><text fill="#e1ed5e" style="font-size:6.75px; font-family:Arial;" text-anchor="middle"><textPath startOffset="22.20632615414155" xlink:href="#id8">August</textPath></text><line stroke="#e1ed5e" stroke-width="0.3" x1="26.63291911575756" x2="22.317208475507996" y1="142.92168965132927" y2="145.44649492493687" /><path d="M 25.769776987707644 143.4266507060508 a86.0,86.0 0 0,1 -11.730757126820373,-40.83630448921669" fill="none" id="id9" stroke="none" /><text fill="#e1ed5e" style="font-size:6.75px; font-family:Arial;" text-anchor="middle"><textPath startOffset="21.46611528233685" xlink:href="#id9">September</textPath></text><line stroke="#e1ed5e" stroke-width="0.3" x1="15.007084014347285" x2="10.007500721073583" y1="101.09737516637583" y2="101.16192664675087" /><path d="M 14.007167355692545 101.11028546245083 a86.0,86.0 0 0,1 10.666146001902534,-42.60595125391555" fill="none" id="id10" stroke="none" /><text fill="#e1ed5e" style="font-size:6.75px; font-family:Arial;" text-anchor="middle"><textPath startOffset="22.20632615414155" xlink:href="#id10">October</textPath></text><line stroke="#e1ed5e" stroke-width="0.3" x1="26.266209847984243" x2="21.928928074336255" y1="57.711370442889674" y2="55.22380399835377" /><path d="M 25.398753493254645 57.213857153982495 a86.0,86.0 0 0,1 29.58750427330803,-30.492523968695096" fill="none" id="id11" stroke="none" /><text fill="#e1ed5e" style="font-size:6.75px; font-family:Arial;" text-anchor="middle"><textPath startOffset="21.46611528233685" xlink:href="#id11">November</textPath></text><line stroke="#e1ed5e" stroke-width="0.3" x1="56.762969772571076" x2="54.21961505331055" y1="26.818313649435495" y2="22.513508569990535" /><path d="M 56.25429882871897 25.957352633546506 a86.0,86.0 0 0,1 42.265352541879196,-11.944610805530505" fill="none" id="id12" stroke="none" /><text fill="#e1ed5e" style="font-size:6.75px; font-family:Arial;" text-anchor="middle"><textPath startOffset="22.20632615414155" xlink:href="#id12">December</textPath></text></svg>