<?xml version="1.0" encoding="utf-8" ?>
<svg baseProfile="full" height="200mm" version="1.1" viewBox="0,0,200,200" width="200mm" xmlns="http://www.w3.org/2000/svg" xmlns:ev="http://www.w3.org/2001/xml-events" xmlns:xlink="http://www.w3.org/1999/xlink"><defs /><rect fill="#1a1a1a" height="200" width="200" x="0" y="0" /><text alignment-baseline="middle" fill="#e1ed5e" style="dominant-baseline: central; font-size:9.0px; font-family:Arial;" text-anchor="middle" x="100.0" y="100.0">2025</text><line stroke="#e1ed5e" stroke-width="0.3" x1="100.0" x2="100.0" y1="15.0" y2="10.0" /><path d="M 100.0 14.0 a86.0,86.0 0 0,1 42.46469731375804,11.215312516191453" fill="none" id="id1" stroke="none" /><text fill="#e1ed5e" style="font-size:6.75px; font-family:Arial;" text-anchor="middle"><textPath startOffset="22.20632615414155" xlink:href="#id1">January</textPath></text><line stroke="#e1ed5e" stroke-width="0.3" x1="143.23703022742887" x2="145.7803849466894" y1="26.81831364943548" y2="22.513508569990506" /><path d="M 143.74570117128098 25.957352633546492 a86.0,86.0 0 0,1 28.547481713284135,27.462654790039103" fill="none" id="id2" stroke="none" /><text fill="#e1ed5e" style="font-size:6.75px; font-family:Arial;" text-anchor="middle"><textPath startOffset="19.985693538727396" xlink:href="#id2">February</textPath></text><path d="M 117.45458315368197 88.32363383020206 l 12.260542084629218 -8.201775863673365 a35.7509328358209,35.7509328358209 0 0,0 0.3377669220818909,0.5144421951872621 l -12.399905642069033 7.989515604508429" fill="#ffa80f" stroke="none" /><line stroke="#e1ed5e" stroke-width="0.3" x1="172.23445277983987" x2="176.4835382374775" y1="55.19839476539836" y2="52.563006222186495" /><path d="M 173.08426987136738 54.67131705675599 a86.0,86.0 0 0,1 12.851231095245387,41.99856678651699" fill="none" id="id3" stroke="none" /><text fill="#e1ed5e" style="font-size:6.75px; font-family:Arial;" text-anchor="middle"><textPath startOffset="22.20632615414155" xlink:href="#id3">March</textPath></text><path d="M 118.73160827565052 90.50648371742162 l 5.50415728249059 -2.7896059972128664 a27.17070895522388,27.17070895522388 0 0,0 0.20784296831494675,0.4189987413730938 l -5.551360263758945 2.694447667340823" fill="#ff2f04" stroke="none" /><path d="M 118.89224826269711 90.83032412892265 l 10.203928865766443 -4.95265142663599 a32.34235074626866,32.34235074626866 0 0,0 0.23878173690975796,0.502935234867041 l -10.287668796517957 4.776273776128408" fill="#ff790b" stroke="none" /><path d="M 119.196687751892 91.48605970444005 l 14.102044407290073 -6.2544104316730005 a36.4267723880597,36.4267723880597 0 0,0 0.24927931441001416,0.5753710267175487 l -14.207614431542767 6.010740260368849" fill="#ffb110" stroke="none" /><path d="M 120.28053869075195 94.5502522615342 l 10.755117766504185 -2.89009476615467 a32.136660447761194,32.136660447761194 0 0,0 0.13895841190929892,0.5354634457902154 l -10.803272510283787 2.704534894815604" fill="#ff760a" stroke="none" /><path d="M 120.45610955862082 95.25157060432595 l 12.422506830841566 -2.8836077766640007 a33.752798507462686,33.752798507462686 0 0,0 0.12650165223459817,0.567082102486392 l -12.470302870078202 2.669347504627645" fill="#ff8c0c" stroke="none" /><path d="M 120.6074358757038 95.95851677861258 l 15.369071812150358 -3.014147234607509 a36.66184701492537,36.66184701492537 0 0,0 0.11612077211072606,0.6203218078626994 l -15.418678308170943 2.749147349282247" fill="#ffb410" stroke="none" /><path d="M 120.78858239683441 97.02765380044208 l 5.875877300597787 -0.8401314351362382 a26.93563432835821,26.93563432835821 0 0,0 0.061674907924883615,0.45954970117638666 l -5.8894682075805065 0.7388633918951872" fill="#ff2b04" stroke="none" /><path d="M 120.87857604477298 97.74499172005257 l 29.272854286654663 -3.1616394074262932 a50.44309701492537,50.44309701492537 0 0,0 0.0858082102315869,0.8640769668247015 l -29.32293962256848 2.6572869098971568" fill="#9fff22" stroke="none" /><line stroke="#e1ed5e" stroke-width="0.3" x1="184.98032266829074" x2="189.97916517819016" y1="98.17113171792111" y2="98.06355123074" /><path d="M 185.9800911702706 98.14961562048488 a86.0,86.0 0 0,1 -9.607161424134198,41.387399972396054" fill="none" id="id4" stroke="none" /><text fill="#e1ed5e" style="font-size:6.75px; font-family:Arial;" text-anchor="middle"><textPath startOffset="21.466115282336823" xlink:href="#id4">April</textPath></text><path d="M 120.99513854157772 99.54816195383933 l 9.107033042755257 -0.19599318233648352 a30.109141791044777,30.109141791044777 0 0,0 0.0066913881157380575,0.5182553837323404 l -9.10905743798871 0.03920154054368049" fill="#ff5908" stroke="none" /><path d="M 120.89721153311464 102.0752229133903 l 15.088098625588378 1.4983419169441161 a36.16231343283582,36.16231343283582 0 0,0 -0.06684465618382297,0.6188984979483909 l -15.060071667903502 -1.7578367367772985" fill="#ffad10" stroke="none" /><path d="M 120.76222939487914 103.15116336523771 l 15.252104149689675 2.314870475862586 a36.4267723880597,36.4267723880597 0 0,0 -0.09942469940782106,0.6191176981207887 l -15.209997695920567 -2.5770674036765797" fill="#ffb110" stroke="none" /><path d="M 120.49622156327973 104.57218783832717 l 4.5887063201372555 1.0236241429090676 a25.701492537313435,25.701492537313435 0 0,0 -0.10003930736857714,0.43096671787190566 l -4.570406446838126 -1.1024595181295382" fill="#ff1902" stroke="none" /><path d="M 120.32669344350535 105.2749913415812 l 17.093763189664248 4.436011841824121 a38.65998134328358,38.65998134328358 0 0,0 -0.17270320087640173,0.6426928576287831 l -17.01487191244607 -4.7295956326284525" fill="#ffce13" stroke="none" /><path d="M 120.23288151984713 105.62410040840565 l 15.174661139885345 4.218075306304243 a36.75,36.75 0 0,0 -0.17466288544932604,0.6080244178669816 l -15.099805617549919 -4.478657199675807" fill="#ffb510" stroke="none" /><path d="M 119.79798401119884 107.00284435728193 l 14.128225530379764 4.997365609440924 a35.986007462686565,35.986007462686565 0 0,0 -0.21159042213936424,0.5822059672572174 l -14.040110847235173 -5.239819373704273" fill="#ffab0f" stroke="none" /><path d="M 119.54520255179757 107.68017299344265 l 27.376046298063482 10.757257229154979 a50.413712686567166,50.413712686567166 0 0,0 -0.32432194235876916,0.8049404634855591 l -27.186821741447318 -11.226897060483351" fill="#a0ff22" stroke="none" /><path d="M 119.26925614724726 108.34839909993367 l 4.260087413150749 1.8456815174293655 a25.642723880597014,25.642723880597014 0 0,0 -0.1789604664988468,0.4035086077715222 l -4.227685861920628 -1.9187384616935754" fill="#ff1802" stroke="none" /><line stroke="#e1ed5e" stroke-width="0.3" x1="174.80103733775053" x2="179.2010983576182" y1="140.37084112569926" y2="142.7455964860345" /><path d="M 175.68104954172406 140.8457921977663 a86.0,86.0 0 0,1 -30.038265399797805,32.042727171017184" fill="none" id="id5" stroke="none" /><text fill="#e1ed5e" style="font-size:6.75px; font-family:Arial;" text-anchor="middle"><textPath startOffset="22.206326154141568" xlink:href="#id5">May</textPath></text><path d="M 118.12598468904814 110.60418214915192 l 8.598006729833001 5.030062148175144 a30.961287313432834,30.961287313432834 0 0,0 -0.27307726302141033,0.45769320019870563 l -8.510148591113364 -5.177317442259954" fill="#ff6509" stroke="none" /><path d="M 116.498646956653 112.99209946851258 l 2.7010378179968306 2.12697150813802 a24.43796641791045,24.43796641791045 0 0,0 -0.2630945939473598,0.3282509585924746 l -2.664025311994617 -2.1731503003087447" fill="#ff0601" stroke="none" /><path d="M 116.0416608686014 113.55231037782055 l 17.328585154701884 14.639529307384516 a43.684701492537314,43.684701492537314 0 0,0 -0.4902203392324285,0.570237004542717 l -17.074022305898676 -14.93564341108876" fill="#f0ff19" stroke="none" /><path d="M 115.80600337817218 113.82643327865902 l 11.080421211470513 9.692690866522627 a35.721548507462686,35.721548507462686 0 0,0 -0.4088265743155365,0.45932099018426303 l -10.91193578750664 -9.881986026447755" fill="#ffa70f" stroke="none" /><path d="M 115.32070863581623 114.36230785411682 l 17.92179909450892 16.80068474725979 a45.565298507462686,45.565298507462686 0 0,0 -0.5413449267654185,0.5675979914450452 l -17.629947616364536 -17.106689855287343" fill="#d9ff1c" stroke="none" /><path d="M 114.81725581225074 114.88116024355365 l 2.13550934980666 2.144719456743507 a24.026585820895523,24.026585820895523 0 0,0 -0.29558426624168693,0.2892914167588297 l -2.0982751311891787 -2.1811609764249087" fill="#ff0000" stroke="none" /><path d="M 113.75828350139079 115.86535959552629 l 21.195713808345978 24.441829638070576 a53.35214552238806,53.35214552238806 0 0,0 -0.6990008158044886,0.5957036597274293 l -20.771847515964442 -24.803057688020953" fill="#7fff26" stroke="none" /><path d="M 112.92097659922987 116.55440617244103 l 7.557324932571954 9.682474505709449 a33.28264925373134,33.28264925373134 0 0,0 -0.45465885288204677,0.3486130207418805 l -7.389537351196413 -9.8111268682787" fill="#ff860c" stroke="none" /><path d="M 112.34349029814194 116.9893568818739 l 8.670380778452314 11.933755347062542 a35.7509328358209,35.7509328358209 0 0,0 -0.5009772636900985,0.35743397587154835 l -8.46367618691333 -12.081233584778309" fill="#ffa80f" stroke="none" /><line stroke="#e1ed5e" stroke-width="0.3" x1="143.8653032363475" x2="146.44561519142675" y1="172.8068346515853" y2="177.08958963109032" /><path d="M 144.38136562736335 173.6633856474863 a86.0,86.0 0 0,1 -40.68145358897372,12.25698825130547" fill="none" id="id6" stroke="none" /><text fill="#e1ed5e" style="font-size:6.75px; font-family:Arial;" text-anchor="middle"><textPath startOffset="21.466115282336833" xlink:href="#id6">June</textPath></text><path d="M 110.21172684928248 118.3499491758327 l 17.618086574391757 31.65879757528225 a57.23087686567164,57.23087686567164 0 0,0 -0.8649416559008795,0.47163515474237916 l -17.07052210662223 -31.9573733817844" fill="#55ff2b" stroke="none" /><path d="M 109.57404056367764 118.69057910512821 l 10.114366546982202 19.74541122813218 a43.18516791044776,43.18516791044776 0 0,0 -0.6645294407773829,0.33320885701067493 l -9.77298319852206 -19.916587926052156" fill="#f6ff19" stroke="none" /><path d="M 109.2508944713604 118.85261126421891 l 6.4851186522643065 13.216172915168384 a35.721548507462686,35.721548507462686 0 0,0 -0.5543428637141563,0.26611826194314575 l -6.256663120549917 -13.325845453611091" fill="#ffa70f" stroke="none" /><path d="M 108.59647513512805 119.15986991738527 l 6.0985255039784345 13.592426373294312 a35.89785447761194,35.89785447761194 0 0,0 -0.5659541638896141,0.2480976735894702 l -5.8636506654310665 -13.695388600178237" fill="#ffaa0f" stroke="none" /><path d="M 107.93186726928326 119.44442032107085 l 5.704729164755034 13.984746331665695 a36.103544776119406,36.103544776119406 0 0,0 -0.5774485604989185,0.22977869940262596 l -5.463159528214249 -14.08087187547439" fill="#ffac10" stroke="none" /><path d="M 107.2578585660854 119.70592522655815 l 15.507579333599455 42.10487101812634 a65.86986940298507,65.86986940298507 0 0,0 -1.067344195319512,0.38271165415404296 l -14.78051557765021 -42.36557021332034" fill="#36ff6c" stroke="none" /><path d="M 106.2309692047433 120.05430185196036 l 2.9207668147234247 9.400453993106417 a30.84375,30.84375 0 0,0 -0.508371131290889,0.15316805162596556 l -2.7585207089922896 -9.449337413838109" fill="#ff6409" stroke="none" /><path d="M 103.41894727170886 120.7198165907248 l 2.3967713383294855 14.525132619337393 a35.721548507462686,35.721548507462686 0 0,0 -0.6075455249159226,0.09488611618708268 l -2.146389949805046 -14.56423704287158" fill="#ffa70f" stroke="none" /><path d="M 100.90346689309514 120.98055641714683 l 0.2541000636830088 5.900781492322546 a26.90625,26.90625 0 0,0 -0.46288954941685173,0.015942852016567338 l -0.15249016259150477 -5.904281142765207" fill="#ff2b04" stroke="none" /><line stroke="#e1ed5e" stroke-width="0.3" x1="102.19456741930631" x2="102.32365962044197" y1="184.97166512339345" y2="189.96999836594603" /><path d="M 102.22038585953345 185.97133177190398 a86.0,86.0 0 0,1 -42.740103519485714,-10.115201625700543" fill="none" id="id7" stroke="none" /><text fill="#e1ed5e" style="font-size:6.75px; font-family:Arial;" text-anchor="middle"><textPath startOffset="22.20632615414155" xlink:href="#id7">July</textPath></text><path d="M 100.54218724476979 120.99299961872073 l 0.3929845981213904 15.216008119166057 a36.22108208955224,36.22108208955224 0 0,0 -0.623417102041471,0.01073269077503152 l -0.13100780618725139 -15.220518287220248" fill="#ffae10" stroke="none" /><path d="M 99.81925306533755 120.99922214144158 l -0.12923743042795388 15.014835607663217 a36.01539179104478,36.01539179104478 0 0,0 -0.6198768751234421,-0.010671742558082991 l 0.38767399544406395 -15.010386387825974" fill="#ffab0f" stroke="none" /><path d="M 98.01472825383883 120.90594882070398 l -2.836234775415897 29.867034159429238 a51.00139925373134,51.00139925373134 0 0,0 -0.8732590809116957,-0.09051687427745049 l 3.349926452933186 -29.81378791669603" fill="#99ff23" stroke="none" /><path d="M 94.81253420990036 120.34920634021253 l -3.636549012369291 14.26532515360981 a35.721548507462686,35.721548507462686 0 0,0 -0.594524885758628,-0.15701942588145418 l 3.8815643409394083 -14.200614378424774" fill="#ffa70f" stroke="none" /><path d="M 93.76903079525671 120.05430185196036 l -6.233875440379833 20.063655537525644 a42.009794776119406,42.009794776119406 0 0,0 -0.6887178875489538,-0.22050571859912246 l 6.578314673019728 -19.953376972266817" fill="#fff917" stroke="none" /><path d="M 90.10565033884886 118.52300852407294 l -7.07464460379883 13.244296673229385 a36.01539179104478,36.01539179104478 0 0,0 -0.544307798861478,-0.2968000109511852 l 7.301575214528948 -13.120556010518435" fill="#ffab0f" stroke="none" /><line stroke="#e1ed5e" stroke-width="0.3" x1="58.666819895761336" x2="56.23545636021788" y1="174.27360380694188" y2="178.64263932499728" /><path d="M 58.180547188652646 175.14741091055294 a86.0,86.0 0 0,1 -31.652253787137756,-30.449443065178592" fill="none" id="id8" stroke="none" /><text fill="#e1ed5e" style="font-size:6.75px; font-family:Arial;" text-anchor="middle"><textPath startOffset="22.20632615414155" xlink:href="#id8">August</textPath></text><path d="M 86.51685102203217 116.09983520530335 l -18.90407921071423 22.57280999400273 a50.44309701492537,50.44309701492537 0 0,0 -0.6608874979608949,-0.5632226634103544 l 19.289832185252184 -22.24406294036942" fill="#9fff22" stroke="none" /><path d="M 85.97065885151581 115.62618273729859 l -10.090132486456449 11.238607173933966 a36.103544776119406,36.103544776119406 0 0,0 -0.4588596365042789,-0.4191573984896833 l 10.282091672427583 -11.063257008857706" fill="#ffac10" stroke="none" /><path d="M 84.67929136418377 114.36230785411682 l -24.288754035979192 22.769349065365247 a54.29244402985075,54.29244402985075 0 0,0 -0.6332918658953705,-0.6873132437668608 l 24.67709230987029 -22.347884566797045" fill="#74ff27" stroke="none" /><path d="M 83.06392112726016 112.41649034213515 l -26.399428914503982 19.354435971742376 a53.73414179104478,53.73414179104478 0 0,0 -0.5404636469344298,-0.7506567353055298 l 26.72867235381402 -18.897145630985708" fill="#7aff26" stroke="none" /><line stroke="#e1ed5e" stroke-width="0.3" x1="26.63291911575756" x2="22.317208475507996" y1="142.92168965132927" y2="145.44649492493687" /><path d="M 25.769776987707644 143.4266507060508 a86.0,86.0 0 0,1 -11.730757126820373,-40.83630448921669" fill="none" id="id9" stroke="none" /><text fill="#e1ed5e" style="font-size:6.75px; font-family:Arial;" text-anchor="middle"><textPath startOffset="21.46611528233685" xlink:href="#id9">September</textPath></text><path d="M 81.69416730710424 110.29060199501025 l -25.665733710282012 14.4279615657653 a50.44309701492537,50.44309701492537 0 0,0 -0.4189745761775605,-0.7605605551544841 l 25.91028469591109 -13.984030492212993" fill="#9fff22" stroke="none" /><path d="M 80.32549172779594 107.34259656027581 l -13.819873814337367 5.157626128626573 a35.7509328358209,35.7509328358209 0 0,0 -0.2102082310312178,-0.5784027709550712 l 13.906606306373808 -4.918975560665385" fill="#ffa80f" stroke="none" /><path d="M 79.67330655649465 105.27499134158121 l -18.003913642358512 4.672205483984477 a39.60027985074627,39.60027985074627 0 0,0 -0.1655455486497567,-0.6612721759871011 l 18.08167050530333 -4.3616054685999845" fill="#ffda14" stroke="none" /><path d="M 79.23777060512086 103.15116336523772 l -6.2170481676830285 0.9435852987325646 a27.288246268656717,27.288246268656717 0 0,0 -0.06648709602040818,-0.46501059471203543 l 6.232369314720036 -0.8364292320401285" fill="#ff3104" stroke="none" /><path d="M 79.07016306316243 101.71520430193888 l -61.82306778031359 5.066412707173009 a83.03031716417911,83.03031716417911 0 0,0 -0.10447365307949127,-1.4254599915657464 l 61.90111799205742 -4.001479579110502" fill="#4cdbff" stroke="none" /><line stroke="#e1ed5e" stroke-width="0.3" x1="15.007084014347285" x2="10.007500721073583" y1="101.09737516637583" y2="101.16192664675087" /><path d="M 14.007167355692545 101.11028546245083 a86.0,86.0 0 0,1 10.666146001902534,-42.60595125391555" fill="none" id="id10" stroke="none" /><text fill="#e1ed5e" style="font-size:6.75px; font-family:Arial;" text-anchor="middle"><textPath startOffset="22.20632615414155" xlink:href="#id10">October</textPath></text><path d="M 79.32604984820605 96.31383870115002 l -31.849840182544483 -5.678820321875697 a53.35214552238806,53.35214552238806 0 0,0 0.16898473034654093,-0.9027231865957865 l 31.74736972828808 6.226221585934056" fill="#7fff26" stroke="none" /><path d="M 80.2630227832202 92.82701384747504 l -13.836136547024276 -5.028450647035919 a35.721548507462686,35.721548507462686 0 0,0 0.21500189633141986,-0.5760981899505558 l 13.74753006219123 5.265871974015817" fill="#ffa70f" stroke="none" /><path d="M 80.65960295795068 91.81776055985345 l -20.10715718597386 -8.50662859705534 a42.83255597014926,42.83255597014926 0 0,0 0.2931160101949427,-0.676552164516232 l 19.957750465936236 8.85147990615817" fill="#faff18" stroke="none" /><path d="M 80.95270993114464 91.15688171328213 l -13.379299833813514 -6.211630662218805 a35.7509328358209,35.7509328358209 0 0,0 0.26394710470037636,-0.555939917403012 l 13.270394535271386 6.441012995262349" fill="#ffa80f" stroke="none" /><path d="M 81.26839172434947 90.50648371742162 l -14.599121934986952 -7.3990978116550705 a37.36707089552239,37.36707089552239 0 0,0 0.29571689015586056,-0.5712309069854571 l 14.469595611670979 7.649301440900863" fill="#ffbd11" stroke="none" /><line stroke="#e1ed5e" stroke-width="0.3" x1="26.266209847984243" x2="21.928928074336255" y1="57.711370442889674" y2="55.22380399835377" /><path d="M 25.398753493254645 57.213857153982495 a86.0,86.0 0 0,1 29.58750427330803,-30.492523968695096" fill="none" id="id11" stroke="none" /><text fill="#e1ed5e" style="font-size:6.75px; font-family:Arial;" text-anchor="middle"><textPath startOffset="21.46611528233685" xlink:href="#id11">November</textPath></text><path d="M 81.96595687620814 89.24020034530311 l -54.1021293713756 -32.27939896409068 a84.0,84.0 0 0,0 0.7515368068551322,-1.2353289071717022 l 53.53847676623425 33.20589564446946" fill="#4dd2ff" stroke="none" /><path d="M 82.34701348167596 88.62581576622439 l -12.399905642069037 -7.989515604508425 a35.7509328358209,35.7509328358209 0 0,0 0.33776692208189885,-0.5144421951872741 l 12.260542084629218 8.201775863673365" fill="#ffa80f" stroke="none" /><path d="M 82.7489923806493 88.02491185347247 l -24.186813854369504 -16.789699145737746 a50.44309701492537,50.44309701492537 0 0,0 0.5012779888106469,-0.7090221657142263 l 23.89422324575498 17.203547811783757" fill="#9fff22" stroke="none" /><path d="M 83.17141714833178 87.43820079747576 l -7.86485075437106 -5.870766231776718 a30.81436567164179,30.81436567164179 0 0,0 0.3209449123390642,-0.4223258838984563 l 7.7626299018078875 6.005276891556201" fill="#ff6309" stroke="none" /><line stroke="#e1ed5e" stroke-width="0.3" x1="56.762969772571076" x2="54.21961505331055" y1="26.818313649435495" y2="22.513508569990535" /><path d="M 56.25429882871897 25.957352633546506 a86.0,86.0 0 0,1 42.265352541879196,-11.944610805530505" fill="none" id="id12" stroke="none" /><text fill="#e1ed5e" style="font-size:6.75px; font-family:Arial;" text-anchor="middle"><textPath startOffset="22.20632615414155" xlink:href="#id12">December</textPath></text></svg>